<?xml version="1.0" encoding="iso-8859-1"?>
<!-- Generator: Adobe Illustrator 16.0.0, SVG Export Plug-In . SVG Version: 6.00 Build 0)  -->
<!DOCTYPE svg PUBLIC "-//W3C//DTD SVG 1.1//EN" "http://www.w3.org/Graphics/SVG/1.1/DTD/svg11.dtd">
<svg version="1.1" xmlns="http://www.w3.org/2000/svg" xmlns:xlink="http://www.w3.org/1999/xlink" x="0px" y="0px" width="512px"
	 height="512px" viewBox="0 0 512 512" style="enable-background:new 0 0 512 512;" xml:space="preserve">
<g id="_x31_115_x2C__Health_x2C__History_x2C__Medical_x2C__Medicine_x2C__Report">
	<g>
		<rect x="174.445" y="62.294" width="20.39" height="20.39"/>
		<rect x="52.104" y="123.464" width="20.39" height="20.39"/>
		<rect x="72.495" y="174.439" width="20.39" height="20.39"/>
		<rect x="225.415" y="62.294" width="20.39" height="20.39"/>
		<rect x="276.395" y="62.294" width="20.391" height="20.39"/>
		<rect x="327.365" y="62.294" width="20.39" height="20.39"/>
		<path d="M490.485,378.335h-71.36V61.617c0-27.731-22.562-50.292-50.303-50.292H72.495c-33.728,0-61.17,27.438-61.17,61.165V408.92
			c0,5.633,4.563,10.195,10.195,10.195h91.755V449.7c0,28.109,22.866,50.975,50.971,50.975h274.244
			c34.296,0,62.187-27.896,62.187-62.186v-49.96C500.676,382.902,496.113,378.335,490.485,378.335z M31.715,398.725V72.489
			c0-22.482,18.293-40.78,40.78-40.78s40.78,18.298,40.78,40.78c0,7.331,0,319.378,0,326.235H31.715z M133.665,449.7
			c0-18.522,0-359.974,0-377.211c0-15.654-5.917-29.948-15.629-40.78h250.786c16.496,0,29.913,13.417,29.913,29.908v316.718h-193.71
			c-5.628,0-10.19,4.567-10.19,10.194V449.7c0,16.863-13.721,30.585-30.59,30.585C147.381,480.285,133.665,466.563,133.665,449.7z
			 M480.295,438.489c0,23.044-18.756,41.796-41.806,41.796H205c6.415-8.526,10.225-19.12,10.225-30.585h152.921
			c5.628,0,10.2-4.563,10.2-10.195c0-5.628-4.572-10.195-10.2-10.195H215.225v-30.585h265.07V438.489z"/>
		<path d="M225.415,194.829h10.2v10.195c0,5.633,4.562,10.195,10.189,10.195h40.78c5.628,0,10.2-4.563,10.2-10.195v-10.195h10.189
			c5.629,0,10.2-4.562,10.2-10.195v-40.78c0-5.628-4.571-10.195-10.2-10.195h-10.189v-10.195c0-5.628-4.572-10.195-10.2-10.195
			h-40.78c-5.628,0-10.189,4.567-10.189,10.195v10.195h-10.2c-5.628,0-10.19,4.567-10.19,10.195v40.78
			C215.225,190.268,219.787,194.829,225.415,194.829z M235.615,154.049h10.189c5.633,0,10.2-4.562,10.2-10.195v-10.195h20.39v10.195
			c0,5.633,4.563,10.195,10.19,10.195h10.2v20.39h-10.2c-5.628,0-10.19,4.567-10.19,10.195v10.195h-20.39v-10.195
			c0-5.628-4.567-10.195-10.2-10.195h-10.189V154.049z"/>
		<path d="M337.565,245.805h-142.73c-5.633,0-10.2,4.562-10.2,10.195c0,5.627,4.567,10.195,10.2,10.195h142.73
			c5.628,0,10.189-4.567,10.189-10.195C347.755,250.367,343.193,245.805,337.565,245.805z"/>
		<path d="M337.565,286.585h-142.73c-5.633,0-10.2,4.562-10.2,10.194c0,5.628,4.567,10.195,10.2,10.195h142.73
			c5.628,0,10.189-4.567,10.189-10.195C347.755,291.146,343.193,286.585,337.565,286.585z"/>
		<path d="M337.565,327.364h-142.73c-5.633,0-10.2,4.563-10.2,10.195c0,5.628,4.567,10.19,10.2,10.19h142.73
			c5.628,0,10.189-4.563,10.189-10.19C347.755,331.927,343.193,327.364,337.565,327.364z"/>
	</g>
</g>
<g id="Layer_1">
</g>
</svg>
