<?xml version="1.0" encoding="UTF-8" standalone="no"?> <svg width="25" height="64" viewBox="0 0 64 64" fill="none" xmlns="http://www.w3.org/2000/svg">
<path d="M16 20H10C9.73478 20 9.48043 20.1054 9.29289 20.2929C9.10536 20.4804 9 20.7348 9 21V27C9 27.2652 9.10536 27.5196 9.29289 27.7071C9.48043 27.8946 9.73478 28 10 28H16C16.2652 28 16.5196 27.8946 16.7071 27.7071C16.8946 27.5196 17 27.2652 17 27V21C17 20.7348 16.8946 20.4804 16.7071 20.2929C16.5196 20.1054 16.2652 20 16 20ZM15 26H11V22H15V26Z" fill="black"/>
<path d="M26 20H20C19.7348 20 19.4804 20.1054 19.2929 20.2929C19.1054 20.4804 19 20.7348 19 21V27C19 27.2652 19.1054 27.5196 19.2929 27.7071C19.4804 27.8946 19.7348 28 20 28H26C26.2652 28 26.5196 27.8946 26.7071 27.7071C26.8946 27.5196 27 27.2652 27 27V21C27 20.7348 26.8946 20.4804 26.7071 20.2929C26.5196 20.1054 26.2652 20 26 20ZM25 26H21V22H25V26Z" fill="black"/>
<path d="M30 28H36C36.2652 28 36.5196 27.8946 36.7071 27.7071C36.8946 27.5196 37 27.2652 37 27V21C37 20.7348 36.8946 20.4804 36.7071 20.2929C36.5196 20.1054 36.2652 20 36 20H30C29.7348 20 29.4804 20.1054 29.2929 20.2929C29.1054 20.4804 29 20.7348 29 21V27C29 27.2652 29.1054 27.5196 29.2929 27.7071C29.4804 27.8946 29.7348 28 30 28ZM31 22H35V26H31V22Z" fill="black"/>
<path d="M40 28H46C46.2652 28 46.5196 27.8946 46.7071 27.7071C46.8946 27.5196 47 27.2652 47 27V21C47 20.7348 46.8946 20.4804 46.7071 20.2929C46.5196 20.1054 46.2652 20 46 20H40C39.7348 20 39.4804 20.1054 39.2929 20.2929C39.1054 20.4804 39 20.7348 39 21V27C39 27.2652 39.1054 27.5196 39.2929 27.7071C39.4804 27.8946 39.7348 28 40 28ZM41 22H45V26H41V22Z" fill="black"/>
<path d="M16 30H10C9.73478 30 9.48043 30.1054 9.29289 30.2929C9.10536 30.4804 9 30.7348 9 31V37C9 37.2652 9.10536 37.5196 9.29289 37.7071C9.48043 37.8946 9.73478 38 10 38H16C16.2652 38 16.5196 37.8946 16.7071 37.7071C16.8946 37.5196 17 37.2652 17 37V31C17 30.7348 16.8946 30.4804 16.7071 30.2929C16.5196 30.1054 16.2652 30 16 30ZM15 36H11V32H15V36Z" fill="black"/>
<path d="M26 30H20C19.7348 30 19.4804 30.1054 19.2929 30.2929C19.1054 30.4804 19 30.7348 19 31V37C19 37.2652 19.1054 37.5196 19.2929 37.7071C19.4804 37.8946 19.7348 38 20 38H26C26.2652 38 26.5196 37.8946 26.7071 37.7071C26.8946 37.5196 27 37.2652 27 37V31C27 30.7348 26.8946 30.4804 26.7071 30.2929C26.5196 30.1054 26.2652 30 26 30ZM25 36H21V32H25V36Z" fill="black"/>
<path d="M34.006 37C34.006 36.7348 33.9006 36.4804 33.7131 36.2929C33.5256 36.1054 33.2712 36 33.006 36H31V32H35V33.965C35 34.2302 35.1054 34.4846 35.2929 34.6721C35.4804 34.8596 35.7348 34.965 36 34.965C36.2652 34.965 36.5196 34.8596 36.7071 34.6721C36.8946 34.4846 37 34.2302 37 33.965V31C37 30.7348 36.8946 30.4804 36.7071 30.2929C36.5196 30.1054 36.2652 30 36 30H30C29.7348 30 29.4804 30.1054 29.2929 30.2929C29.1054 30.4804 29 30.7348 29 31V37C29 37.2652 29.1054 37.5196 29.2929 37.7071C29.4804 37.8946 29.7348 38 30 38H33.006C33.2712 38 33.5256 37.8946 33.7131 37.7071C33.9006 37.5196 34.006 37.2652 34.006 37Z" fill="black"/>
<path d="M16 40H10C9.73478 40 9.48043 40.1054 9.29289 40.2929C9.10536 40.4804 9 40.7348 9 41V47C9 47.2652 9.10536 47.5196 9.29289 47.7071C9.48043 47.8946 9.73478 48 10 48H16C16.2652 48 16.5196 47.8946 16.7071 47.7071C16.8946 47.5196 17 47.2652 17 47V41C17 40.7348 16.8946 40.4804 16.7071 40.2929C16.5196 40.1054 16.2652 40 16 40ZM15 46H11V42H15V46Z" fill="black"/>
<path d="M26 40H20C19.7348 40 19.4804 40.1054 19.2929 40.2929C19.1054 40.4804 19 40.7348 19 41V47C19 47.2652 19.1054 47.5196 19.2929 47.7071C19.4804 47.8946 19.7348 48 20 48H26C26.2652 48 26.5196 47.8946 26.7071 47.7071C26.8946 47.5196 27 47.2652 27 47V41C27 40.7348 26.8946 40.4804 26.7071 40.2929C26.5196 40.1054 26.2652 40 26 40ZM25 46H21V42H25V46Z" fill="black"/>
<path d="M54 33.74V9C53.9976 8.20508 53.6808 7.4434 53.1187 6.8813C52.5566 6.31921 51.7949 6.00237 51 6H46V5C46 4.20435 45.6839 3.44129 45.1213 2.87868C44.5587 2.31607 43.7956 2 43 2C42.2044 2 41.4413 2.31607 40.8787 2.87868C40.3161 3.44129 40 4.20435 40 5V6H16V5C16 4.20435 15.6839 3.44129 15.1213 2.87868C14.5587 2.31607 13.7956 2 13 2C12.2044 2 11.4413 2.31607 10.8787 2.87868C10.3161 3.44129 10 4.20435 10 5V6H5C4.20508 6.00237 3.4434 6.31921 2.8813 6.8813C2.31921 7.4434 2.00237 8.20508 2 9V51C2.00237 51.7949 2.31921 52.5566 2.8813 53.1187C3.4434 53.6808 4.20508 53.9976 5 54H33.74C34.8347 56.0799 36.4028 57.8734 38.3179 59.236C40.2331 60.5985 42.4416 61.492 44.7654 61.8443C47.0892 62.1966 49.4633 61.9979 51.6962 61.2642C53.9291 60.5305 55.9584 59.2823 57.6203 57.6203C59.2823 55.9584 60.5305 53.9291 61.2642 51.6962C61.9979 49.4633 62.1966 47.0892 61.8443 44.7654C61.492 42.4416 60.5985 40.2331 59.236 38.3179C57.8734 36.4028 56.0799 34.8347 54 33.74ZM42 5C42 4.73478 42.1054 4.48043 42.2929 4.29289C42.4804 4.10536 42.7348 4 43 4C43.2652 4 43.5196 4.10536 43.7071 4.29289C43.8946 4.48043 44 4.73478 44 5V9C44 9.26522 43.8946 9.51957 43.7071 9.70711C43.5196 9.89464 43.2652 10 43 10C42.7348 10 42.4804 9.89464 42.2929 9.70711C42.1054 9.51957 42 9.26522 42 9V5ZM12 5C12 4.73478 12.1054 4.48043 12.2929 4.29289C12.4804 4.10536 12.7348 4 13 4C13.2652 4 13.5196 4.10536 13.7071 4.29289C13.8946 4.48043 14 4.73478 14 5V9C14 9.26522 13.8946 9.51957 13.7071 9.70711C13.5196 9.89464 13.2652 10 13 10C12.7348 10 12.4804 9.89464 12.2929 9.70711C12.1054 9.51957 12 9.26522 12 9V5ZM4 9C4 8.73478 4.10536 8.48043 4.29289 8.29289C4.48043 8.10536 4.73478 8 5 8H10V9C10 9.79565 10.3161 10.5587 10.8787 11.1213C11.4413 11.6839 12.2044 12 13 12C13.7956 12 14.5587 11.6839 15.1213 11.1213C15.6839 10.5587 16 9.79565 16 9V8H40V9C40 9.79565 40.3161 10.5587 40.8787 11.1213C41.4413 11.6839 42.2044 12 43 12C43.7956 12 44.5587 11.6839 45.1213 11.1213C45.6839 10.5587 46 9.79565 46 9V8H51C51.2652 8 51.5196 8.10536 51.7071 8.29289C51.8946 8.48043 52 8.73478 52 9V14H4V9ZM32.88 52H5C4.73478 52 4.48043 51.8946 4.29289 51.7071C4.10536 51.5196 4 51.2652 4 51V16H52V32.88C50.3964 32.301 48.7049 32.0033 47 32C43.0232 32.0048 39.2107 33.5866 36.3987 36.3987C33.5866 39.2107 32.0048 43.0232 32 47C32.0033 48.7049 32.301 50.3964 32.88 52V52ZM58.71 52.61L57.89 52.13C57.6593 51.9974 57.3853 51.9619 57.1284 52.0313C56.8714 52.1007 56.6526 52.2693 56.52 52.5C56.3874 52.7307 56.3519 53.0047 56.4213 53.2616C56.4907 53.5186 56.6593 53.7374 56.89 53.87L57.72 54.34C56.8077 55.6623 55.6623 56.8077 54.34 57.72L53.87 56.89C53.8043 56.7757 53.7168 56.6756 53.6124 56.5951C53.5081 56.5147 53.3888 56.4556 53.2616 56.4213C53.1344 56.3869 53.0017 56.3779 52.871 56.3949C52.7403 56.4118 52.6143 56.4543 52.5 56.52C52.3857 56.5857 52.2855 56.6732 52.2051 56.7776C52.1247 56.8819 52.0656 57.0012 52.0313 57.1284C51.9969 57.2556 51.9879 57.3883 52.0049 57.519C52.0218 57.6497 52.0643 57.7757 52.13 57.89L52.61 58.71C51.1629 59.4039 49.5999 59.8243 48 59.95V59C48 58.7348 47.8946 58.4804 47.7071 58.2929C47.5196 58.1054 47.2652 58 47 58C46.7348 58 46.4804 58.1054 46.2929 58.2929C46.1054 58.4804 46 58.7348 46 59V59.95C44.4001 59.8243 42.8371 59.4039 41.39 58.71L41.87 57.89C42.0026 57.6593 42.0381 57.3853 41.9687 57.1284C41.8993 56.8714 41.7307 56.6526 41.5 56.52C41.2693 56.3874 40.9953 56.3519 40.7384 56.4213C40.4814 56.4907 40.2626 56.6593 40.13 56.89L39.66 57.72C38.3377 56.8077 37.1923 55.6623 36.28 54.34L37.11 53.87C37.3407 53.7374 37.5093 53.5186 37.5787 53.2616C37.6481 53.0047 37.6126 52.7307 37.48 52.5C37.3474 52.2693 37.1286 52.1007 36.8716 52.0313C36.6147 51.9619 36.3407 51.9974 36.11 52.13L35.29 52.61C34.5961 51.1629 34.1757 49.5999 34.05 48H35C35.2652 48 35.5196 47.8946 35.7071 47.7071C35.8946 47.5196 36 47.2652 36 47C36 46.7348 35.8946 46.4804 35.7071 46.2929C35.5196 46.1054 35.2652 46 35 46H34.05C34.1757 44.4001 34.5961 42.8371 35.29 41.39L36.11 41.87C36.2626 41.956 36.4349 42.0008 36.61 42C36.8314 42.0015 37.0471 41.9296 37.2232 41.7953C37.3993 41.6611 37.5259 41.4722 37.5831 41.2583C37.6402 41.0444 37.6248 40.8176 37.5392 40.6134C37.4536 40.4092 37.3026 40.2392 37.11 40.13L36.28 39.66C37.1923 38.3377 38.3377 37.1923 39.66 36.28L40.13 37.11C40.1955 37.2245 40.2831 37.3247 40.3878 37.4049C40.4924 37.4852 40.612 37.5437 40.7395 37.5772C40.8671 37.6108 41 37.6185 41.1305 37.6001C41.2611 37.5817 41.3867 37.5375 41.5 37.47C41.7287 37.3381 41.896 37.1211 41.9653 36.8663C42.0346 36.6115 42.0004 36.3396 41.87 36.11L41.39 35.29C42.8371 34.5961 44.4001 34.1757 46 34.05V35C46 35.2652 46.1054 35.5196 46.2929 35.7071C46.4804 35.8946 46.7348 36 47 36C47.2652 36 47.5196 35.8946 47.7071 35.7071C47.8946 35.5196 48 35.2652 48 35V34.05C49.5999 34.1757 51.1629 34.5961 52.61 35.29L52.13 36.11C51.9996 36.3396 51.9654 36.6115 52.0347 36.8663C52.104 37.1211 52.2713 37.3381 52.5 37.47C52.6133 37.5375 52.7389 37.5817 52.8695 37.6001C53 37.6185 53.1329 37.6108 53.2605 37.5772C53.388 37.5437 53.5076 37.4852 53.6122 37.4049C53.7169 37.3247 53.8045 37.2245 53.87 37.11L54.34 36.28C55.6623 37.1923 56.8077 38.3377 57.72 39.66L56.89 40.13C56.6974 40.2392 56.5464 40.4092 56.4608 40.6134C56.3752 40.8176 56.3598 41.0444 56.4169 41.2583C56.4741 41.4722 56.6007 41.6611 56.7768 41.7953C56.9529 41.9296 57.1686 42.0015 57.39 42C57.5651 42.0008 57.7374 41.956 57.89 41.87L58.71 41.39C59.4039 42.8371 59.8243 44.4001 59.95 46H59C58.7348 46 58.4804 46.1054 58.2929 46.2929C58.1054 46.4804 58 46.7348 58 47C58 47.2652 58.1054 47.5196 58.2929 47.7071C58.4804 47.8946 58.7348 48 59 48H59.95C59.8243 49.5999 59.4039 51.1629 58.71 52.61V52.61Z" fill="black"/>
<path d="M48 44.184V39C48 38.7348 47.8946 38.4804 47.7071 38.2929C47.5196 38.1054 47.2652 38 47 38C46.7348 38 46.4804 38.1054 46.2929 38.2929C46.1054 38.4804 46 38.7348 46 39V44.184C45.5818 44.3334 45.2019 44.5738 44.8878 44.8878C44.5738 45.2019 44.3334 45.5818 44.184 46H41C40.7348 46 40.4804 46.1054 40.2929 46.2929C40.1054 46.4804 40 46.7348 40 47C40 47.2652 40.1054 47.5196 40.2929 47.7071C40.4804 47.8946 40.7348 48 41 48H44.184C44.3518 48.4775 44.6379 48.9046 45.0156 49.2414C45.3933 49.5783 45.8502 49.8138 46.3437 49.9261C46.8371 50.0384 47.351 50.0237 47.8372 49.8835C48.3235 49.7432 48.7662 49.482 49.1241 49.1241C49.482 48.7662 49.7432 48.3235 49.8835 47.8372C50.0237 47.351 50.0384 46.8371 49.9261 46.3437C49.8138 45.8502 49.5783 45.3933 49.2414 45.0156C48.9046 44.6379 48.4775 44.3518 48 44.184ZM47 48C46.8022 48 46.6089 47.9414 46.4444 47.8315C46.28 47.7216 46.1518 47.5654 46.0761 47.3827C46.0004 47.2 45.9806 46.9989 46.0192 46.8049C46.0578 46.6109 46.153 46.4327 46.2929 46.2929C46.4327 46.153 46.6109 46.0578 46.8049 46.0192C46.9989 45.9806 47.2 46.0004 47.3827 46.0761C47.5654 46.1518 47.7216 46.28 47.8315 46.4444C47.9414 46.6089 48 46.8022 48 47C48 47.2652 47.8946 47.5196 47.7071 47.7071C47.5196 47.8946 47.2652 48 47 48Z" fill="black"/>
</svg>
