<?xml version="1.0" encoding="UTF-8" standalone="no"?>
<!-- Created with Inkscape (http://www.inkscape.org/) -->

<svg
   width="20"
   height="63"
   viewBox="0 0 80 80"
   version="1.1"
   id="svg309"
   inkscape:version="1.2 (dc2aedaf03, 2022-05-15)"
   sodipodi:docname="paseador.svg"
   xmlns:inkscape="http://www.inkscape.org/namespaces/inkscape"
   xmlns:sodipodi="http://sodipodi.sourceforge.net/DTD/sodipodi-0.dtd"
   xmlns="http://www.w3.org/2000/svg"
   xmlns:svg="http://www.w3.org/2000/svg">
  <sodipodi:namedview
     id="namedview311"
     pagecolor="#ffffff"
     bordercolor="#000000"
     borderopacity="0.25"
     inkscape:showpageshadow="2"
     inkscape:pageopacity="0.0"
     inkscape:pagecheckerboard="0"
     inkscape:deskcolor="#d1d1d1"
     inkscape:document-units="mm"
     showgrid="false"
     inkscape:zoom="0.46769781"
     inkscape:cx="2.1381327"
     inkscape:cy="342.10124"
     inkscape:window-width="1366"
     inkscape:window-height="705"
     inkscape:window-x="-8"
     inkscape:window-y="-8"
     inkscape:window-maximized="1"
     inkscape:current-layer="layer1" />
  <defs
     id="defs306" />
  <g
     inkscape:label="Capa 1"
     inkscape:groupmode="layer"
     id="layer1">
    <path
       d="m 54.7812,48.838023 c -0.453416,0.681091 -1.11326,1.150938 -1.842135,1.337099 0.07429,1.89566 0.121365,8.34472 -2.476367,11.107102 -0.09536,0.101388 -0.193728,0.195474 -0.293794,0.28538 l -0.09065,7.710514 c -0.0019,0.155733 -0.0213,0.306678 -0.05432,0.452225 h 1.717781 v -2.6e-5 h 1.717781 c -0.03302,-0.145521 -0.05249,-0.296466 -0.05432,-0.452199 l -0.139541,-11.869182 0.661326,-0.01971 0.1397,11.881141 c 0.0092,0.787797 0.643757,1.425231 1.431448,1.438037 0.008,1.32e-4 0.01614,1.32e-4 0.02403,1.32e-4 0.777081,0 1.418907,-0.611849 1.453409,-1.390861 l 0.532236,-12.035129 0.0068,-2.11e-4 c 0.04278,-1.398826 0.124354,-2.618661 0.124354,-2.618661 0.262149,0.131075 -0.02913,-3.080358 -0.02913,-3.080358 0,0 -0.04368,-0.196612 0.568008,-0.393224 -0.700484,-0.875612 -1.595385,-3.420084 -2.112751,-5.01396 l -0.960384,1.884733 c -0.06398,0.286861 -0.174678,0.553535 -0.323507,0.77716 z"
       id="path2"
       style="stroke-width:0.264583;fill:#000000;stroke:#000000" />
    <path
       d="m 45.847121,69.34683 -0.324723,-7.342637 c -0.298053,-0.198993 -0.58891,-0.447331 -0.872966,-0.745702 -0.457994,0.901224 -0.741283,2.145533 -0.741283,3.51999 0,1.523021 0.34872,2.884329 0.896699,3.797988 l -0.399494,0.09528 c -0.568564,0.135519 -0.919454,0.706411 -0.783802,1.274974 0.115887,0.486013 0.54983,0.813011 1.028488,0.813011 0.08125,0 0.163936,-0.0094 0.246486,-0.02921 l 1.300189,-0.310121 C 45.992139,70.110841 45.864742,69.744604 45.847121,69.34683 Z"
       id="path4"
       style="stroke-width:0.264583;fill:#000000;stroke:#000000" />
    <path
       d="m 46.507944,69.317646 c 0.0345,0.779013 0.676328,1.390862 1.453409,1.390862 0.0079,0 0.01601,0 0.02403,-1.32e-4 0.787691,-0.01278 1.422267,-0.650214 1.431448,-1.438037 l 0.08477,-7.209869 c -0.615686,0.367215 -1.301142,0.554963 -2.050838,0.554963 -0.430319,0 -0.846561,-0.08258 -1.25013,-0.247041 z"
       id="path6"
       style="stroke-width:0.264583;fill:#000000;stroke:#000000" />
    <path
       d="m 57.636346,69.34683 c -0.01762,0.397774 -0.144992,0.763984 -0.349594,1.073573 l 1.300162,0.310118 c 0.08255,0.01977 0.1651,0.02921 0.246486,0.02921 0.478658,0 0.912601,-0.327104 1.028488,-0.813011 0.02932,-0.122846 0.03188,-0.245031 0.01847,-0.36367 0.346578,0.05276 0.648415,0.09546 0.885614,0.126259 1.798558,0.23368 8.205972,-1.101037 8.205972,-1.101037 0,0 -3.846724,-1.556068 -7.560151,-2.461472 -0.582798,-0.142081 -1.216792,-0.300408 -1.881029,-0.453892 0.02807,-0.29681 0.04453,-0.601663 0.04453,-0.914453 0,-2.052902 -0.632196,-3.814604 -1.534531,-4.577001 z"
       id="path8"
       style="stroke-width:0.264583;fill:#000000;stroke:#000000" />
    <path
       d="m 45.017361,39.656823 c -0.238019,0.37555 -0.487733,0.794676 -0.683683,1.182979 -0.212778,0.421666 0.01569,1.725665 0.01363,1.979374 -0.0067,0.815499 1.030235,0.649923 1.989508,0.41865 0.171132,-0.04125 0.31615,-0.15404 0.398145,-0.309827 l 1.453356,-2.760821 0.470826,0.412009 -1.385729,2.63234 c -0.02246,0.04268 -0.05271,0.07943 -0.07975,0.118745 0.172482,0.775149 0.347027,1.337654 0.347027,1.337654 l 1.595306,3.130391 c 0.03791,0.223361 0.114935,0.43135 0.227118,0.599863 0.447252,0.671857 1.139481,1.073521 1.880579,1.073521 h 0.498052 0.498051 c 0.741098,0 1.433301,-0.401664 1.880579,-1.073521 0.112183,-0.168513 0.189204,-0.376502 0.227118,-0.599863 L 55.9428,44.667926 c 0,0 0.174545,-0.562505 0.347027,-1.337681 -0.02704,-0.03932 -0.05726,-0.07607 -0.07972,-0.118718 l -1.385729,-2.63234 0.470827,-0.412009 1.453356,2.760821 c 0.08199,0.15576 0.227012,0.268579 0.398145,0.309827 0.9593,0.231246 1.996202,0.396822 1.989534,-0.41865 -0.0021,-0.253709 0.226378,-1.557734 0.0136,-1.979374 -0.195951,-0.388329 -0.445664,-0.807456 -0.683684,-1.182979 -0.419761,-0.662305 -0.983218,-0.740357 -1.729475,-0.751046 -0.07612,-0.0011 -0.153511,-0.0019 -0.233521,-0.0019 l -0.15158,-0.03098 -0.648388,-0.13253 c -1.360435,-0.832273 -3.961447,-0.92022 -3.961447,-0.92022 v 2.6e-5 c 0,0 -2.600987,0.08792 -3.961448,0.920194 l -0.648441,0.13253 -0.1515,0.03098 c -0.08001,2.38e-4 -0.157374,7.94e-4 -0.233521,0.0019 -0.746258,0.01069 -1.309714,0.08874 -1.729476,0.751046 z m 5.799138,8.385598 c 0,-0.534246 0.433096,-0.967343 0.967343,-0.967343 0.534246,0 0.967343,0.433097 0.967343,0.967343 0,0.534247 -1.934686,0.534247 -1.934686,0 z m 2.762011,-5.357653 c 0.34417,0 0.6232,0.279029 0.6232,0.623199 0,0.34417 -0.27903,0.6232 -0.6232,0.6232 -0.34417,0 -0.623173,-0.27903 -0.623173,-0.6232 0,-0.34417 0.278977,-0.623199 0.623173,-0.623199 z m -3.673554,2.6e-5 c 0.34417,0 0.6232,0.279003 0.6232,0.6232 0,0.34417 -0.27903,0.623173 -0.6232,0.623173 -0.34417,0 -0.623199,-0.279003 -0.623199,-0.623173 0,-0.344197 0.279029,-0.6232 0.623199,-0.6232 z"
       id="path10"
       style="stroke-width:0.264583;fill:#000000;stroke:#000000" />
    <circle
       cx="28.237617"
       cy="15.934096"
       id="circle14"
       style="stroke-width:0.264583;fill:#000000;stroke:#000000"
       r="5.6885414" />
    <path
       d="m 35.99962,24.7593 c -0.940514,-0.547 -3.59693,-1.835282 -7.761551,-1.835282 -4.161235,0 -6.817149,1.286351 -7.759462,1.833986 -0.412883,0.1633 -0.763006,0.484981 -0.950595,0.925777 -0.136155,0.320145 -3.339068,7.967741 -3.642149,19.014598 -0.02609,0.949431 0.722445,1.740191 1.671744,1.766306 0.01627,2.64e-4 0.03204,5.29e-4 0.04805,5.29e-4 0.928106,0 1.692672,-0.73922 1.718231,-1.672643 0.189388,-6.901392 1.608164,-12.456742 2.543519,-15.419599 0.653441,1.906614 1.205362,4.042013 1.066085,5.535956 -0.241062,2.586911 -1.078997,3.709459 -1.452615,5.984769 -0.05683,0.174916 -0.09742,0.357982 -0.117316,0.548296 l -2.795958,26.855208 c -0.151421,1.45341 0.904346,2.754366 2.357728,2.905628 0.09303,0.0097 0.185526,0.01447 0.276993,0.01447 1.338156,0 2.486924,-1.01182 2.628529,-2.372069 l 2.177389,-20.914863 c 0.899689,-1.54641 1.738391,-2.03192 2.229829,-2.03192 0.49223,0 1.332229,0.486912 2.233189,2.037847 l 2.176621,20.908936 c 0.141605,1.360249 1.290108,2.372069 2.628265,2.372069 0.09173,0 0.184229,-0.0048 0.277257,-0.01447 1.453409,-0.151289 2.509149,-1.452245 2.357728,-2.905628 L 35.115436,41.441993 c -0.02016,-0.194812 -0.06279,-0.381767 -0.121947,-0.56044 -0.37465,-2.267294 -1.209992,-3.390239 -1.450816,-5.972625 -0.139276,-1.493837 0.412644,-3.62884 1.065821,-5.535189 0.4885,1.547574 1.108578,3.803253 1.616737,6.587252 0.409654,2.244249 0.746151,4.832059 0.882253,7.671461 0.01834,0.382429 0.03352,0.768774 0.04426,1.160092 0.0025,0.09118 0.01402,0.179785 0.03008,0.266753 -0.169572,1.42158 -0.377614,4.421849 0.675693,5.66256 0.335385,0.395208 0.780573,0.603964 1.287515,0.603964 0.523214,0 0.969963,-0.214445 1.291405,-0.62013 0.145203,-0.18333 0.259926,-0.403596 0.349329,-0.650082 1.443064,6.135926 3.485065,11.898233 6.66496,11.898233 0.976948,0 1.828059,-0.378539 2.530078,-1.125008 2.378525,-2.529178 2.358655,-8.741886 2.298039,-10.566029 -0.01312,1.85e-4 -0.02598,0.0026 -0.03911,0.0026 h -0.99605 c -0.996183,0 -1.946275,-0.533559 -2.541323,-1.427428 -0.14896,-0.223758 -0.259662,-0.490405 -0.323612,-0.777345 l -0.960332,-1.88468 c -0.517366,1.593903 -1.41224,4.138321 -2.11275,5.013933 0.611716,0.196612 0.568007,0.393224 0.568007,0.393224 0,0 -0.29128,3.211433 -0.02913,3.080358 0,0 0.08154,1.219835 0.124354,2.618661 l 0.0068,2.12e-4 0.134038,3.030828 c -0.233654,-0.204099 -0.465773,-0.462386 -0.696331,-0.773933 -1.045368,-1.412636 -2.058273,-3.927951 -3.032363,-7.532396 -0.470032,-1.739291 -0.931148,-3.729143 -1.382368,-5.973736 -0.09612,-0.478393 -0.173884,-0.864023 -0.233072,-1.129771 -0.04445,-0.199178 -0.09237,-0.411638 -0.188912,-0.570521 -0.0095,-0.283977 -0.02016,-0.566393 -0.03336,-0.845687 C 40.388846,40.215491 39.988902,37.269488 39.508101,34.759095 38.461965,29.296984 37.037475,25.894918 36.947649,25.683701 36.760562,25.243646 36.411497,24.922469 35.99962,24.7593 Z m 14.218179,32.649636 -0.01204,1.025313 c -0.189389,0.475536 -0.413226,0.90678 -0.67654,1.273863 l 0.02728,-2.318914 z m -10.61077,-7.360259 c -0.121708,0.153485 -0.259927,0.21897 -0.461989,0.21897 -0.197141,0 -0.345466,-0.07107 -0.480589,-0.230347 -0.528108,-0.621823 -0.616585,-2.246815 -0.53004,-3.739356 0.199337,0.09477 0.419074,0.151818 0.650796,0.163195 0.02828,0.0013 0.0562,0.0042 0.0848,0.0042 0.01577,0 0.03178,-2.65e-4 0.04805,-5.29e-4 0.100277,-0.0028 0.197697,-0.01582 0.292814,-0.03493 0.230108,-0.04622 0.442966,-0.137583 0.629365,-0.265192 0.217302,1.491827 0.277627,3.239717 -0.233204,3.884083 z"
       id="path16"
       style="stroke-width:0.264583;fill:#000000;stroke:#000000" />
  </g>
</svg>
