<?xml version="1.0" encoding="UTF-8" standalone="no"?> <svg width="64" height="64" viewBox="0 0 64 64" fill="none" xmlns="http://www.w3.org/2000/svg">
<path d="M34.0899 30.75H29.9099C28.8249 30.7715 27.7754 30.363 26.9905 29.6136C26.2055 28.8642 25.7488 27.8348 25.7199 26.75C25.7203 26.221 25.8276 25.6976 26.0356 25.2112C26.2435 24.7249 26.5478 24.2856 26.9299 23.92C27.7402 23.1543 28.8151 22.7315 29.9299 22.74H37.9299C38.2615 22.74 38.5794 22.6083 38.8138 22.3738C39.0482 22.1394 39.1799 21.8215 39.1799 21.49C39.1799 21.1584 39.0482 20.8405 38.8138 20.6061C38.5794 20.3717 38.2615 20.24 37.9299 20.24H33.2499V15.46C33.2499 15.1284 33.1182 14.8105 32.8838 14.5761C32.6494 14.3417 32.3315 14.21 31.9999 14.21C31.6684 14.21 31.3505 14.3417 31.1161 14.5761C30.8816 14.8105 30.7499 15.1284 30.7499 15.46V20.23H29.9099C28.15 20.2186 26.4556 20.897 25.1899 22.12C24.5643 22.717 24.0649 23.4335 23.7214 24.2271C23.3778 25.0207 23.1971 25.8752 23.1899 26.74C23.2163 28.4896 23.9353 30.1574 25.1894 31.3777C26.4435 32.5981 28.1302 33.2713 29.8799 33.25H34.0599C35.145 33.2285 36.1944 33.637 36.9794 34.3863C37.7644 35.1357 38.2211 36.1651 38.2499 37.25C38.2496 37.7789 38.1423 38.3023 37.9343 38.7887C37.7264 39.275 37.4221 39.7143 37.0399 40.08C36.2297 40.8457 35.1547 41.2685 34.0399 41.26H26.0399C25.7084 41.26 25.3905 41.3917 25.1561 41.6261C24.9216 41.8605 24.7899 42.1784 24.7899 42.51C24.7899 42.8415 24.9216 43.1594 25.1561 43.3938C25.3905 43.6283 25.7084 43.76 26.0399 43.76H30.6499V48.53C30.6499 48.8615 30.7816 49.1794 31.0161 49.4138C31.2505 49.6483 31.5684 49.78 31.8999 49.78C32.2315 49.78 32.5494 49.6483 32.7838 49.4138C33.0182 49.1794 33.1499 48.8615 33.1499 48.53V43.77H33.9899C35.7499 43.7814 37.4443 43.1029 38.7099 41.88C39.3356 41.283 39.835 40.5664 40.1785 39.7728C40.5221 38.9792 40.7028 38.1247 40.7099 37.26C40.6837 35.5225 39.9743 33.8653 38.7354 32.647C37.4964 31.4286 35.8276 30.7471 34.0899 30.75V30.75Z" fill="black"/>
<path d="M32 5.75C26.8083 5.75 21.7331 7.28954 17.4163 10.1739C13.0995 13.0583 9.73497 17.158 7.74817 21.9546C5.76137 26.7511 5.24154 32.0291 6.2544 37.1211C7.26726 42.2131 9.76733 46.8904 13.4385 50.5616C17.1096 54.2327 21.7869 56.7328 26.8789 57.7456C31.9709 58.7585 37.2489 58.2386 42.0455 56.2518C46.842 54.265 50.9417 50.9005 53.8261 46.5837C56.7105 42.2669 58.25 37.1918 58.25 32C58.2394 25.0413 55.4704 18.3707 50.5499 13.4501C45.6293 8.52959 38.9587 5.76058 32 5.75V5.75ZM32 55.75C27.3027 55.75 22.7109 54.3571 18.8052 51.7474C14.8996 49.1377 11.8555 45.4285 10.0579 41.0887C8.26029 36.749 7.78996 31.9737 8.70636 27.3666C9.62276 22.7596 11.8847 18.5277 15.2062 15.2062C18.5277 11.8847 22.7596 9.62275 27.3666 8.70635C31.9737 7.78995 36.749 8.26028 41.0887 10.0579C45.4285 11.8554 49.1377 14.8995 51.7474 18.8052C54.3571 22.7109 55.75 27.3027 55.75 32C55.7447 38.2973 53.2408 44.3351 48.7879 48.7879C44.3351 53.2408 38.2973 55.7447 32 55.75V55.75Z" fill="black"/>
</svg>
