<?xml version="1.0" encoding="UTF-8" standalone="no"?> <svg width="64" height="64" viewBox="0 0 101 101" fill="none" xmlns="http://www.w3.org/2000/svg">
<path d="M49.982 17.0149C31.427 17.0149 16.332 32.1109 16.332 50.6649C16.332 69.2189 31.428 84.3149 49.982 84.3149C68.537 84.3149 83.633 69.2189 83.633 50.6649C83.633 32.1109 68.537 17.0149 49.982 17.0149ZM49.982 80.7079C33.416 80.7079 19.938 67.2309 19.938 50.6649C19.938 34.0989 33.416 20.6209 49.982 20.6209C66.548 20.6209 80.025 34.0989 80.025 50.6649C80.025 67.2309 66.548 80.7079 49.982 80.7079Z" fill="black" stroke="black" stroke-width="2.2"/>
<path d="M58.485 45.1979L51.227 52.4559V26.6399C51.227 25.6439 50.419 24.8369 49.423 24.8369C48.427 24.8369 47.62 25.6439 47.62 26.6399V56.8089C47.62 56.9279 47.632 57.0469 47.656 57.1639C47.666 57.2149 47.685 57.2619 47.7 57.3119C47.718 57.3749 47.733 57.4389 47.759 57.5009C47.784 57.5609 47.818 57.6149 47.849 57.6719C47.874 57.7189 47.895 57.7669 47.925 57.8119C48.057 58.0099 48.228 58.1799 48.426 58.3129C48.463 58.3379 48.503 58.3539 48.541 58.3749C48.605 58.4109 48.667 58.4489 48.736 58.4779C48.79 58.4999 48.847 58.5129 48.902 58.5299C48.959 58.5469 49.013 58.5689 49.072 58.5799C49.188 58.6029 49.306 58.6159 49.424 58.6159C49.542 58.6159 49.66 58.6039 49.776 58.5799C49.835 58.5679 49.89 58.5469 49.947 58.5289C50.002 58.5119 50.058 58.4999 50.112 58.4779C50.182 58.4489 50.246 58.4099 50.311 58.3729C50.348 58.3519 50.386 58.3369 50.422 58.3129C50.523 58.2459 50.617 58.1699 50.701 58.0839L61.036 47.7489C61.74 47.0449 61.74 45.9029 61.036 45.1989C60.331 44.4929 59.19 44.4929 58.485 45.1979Z" fill="black" stroke="black" stroke-width="2.2"/>
<path d="M49.983 9.04395C27.033 9.04395 8.362 27.7149 8.362 50.6659C8.362 73.6169 27.033 92.2869 49.983 92.2869C72.933 92.2869 91.605 73.6159 91.605 50.6659C91.605 27.7159 72.933 9.04395 49.983 9.04395ZM49.983 88.6789C29.022 88.6789 11.968 71.6259 11.968 50.6649C11.968 29.7039 29.021 12.6499 49.983 12.6499C70.945 12.6499 87.997 29.7039 87.997 50.6649C87.997 71.6259 70.944 88.6789 49.983 88.6789Z" fill="black" stroke="black" stroke-width="2.2"/>
</svg>
