<?xml version="1.0" encoding="UTF-8" standalone="no"?>
<svg
   viewBox="0 0 4291.54 4106.81"
   version="1.1"
   id="svg153"
   sodipodi:docname="dogwalk.svg"
   inkscape:version="1.2 (dc2aedaf03, 2022-05-15)"
   xmlns:inkscape="http://www.inkscape.org/namespaces/inkscape"
   xmlns:sodipodi="http://sodipodi.sourceforge.net/DTD/sodipodi-0.dtd"
   xmlns="http://www.w3.org/2000/svg"
   xmlns:svg="http://www.w3.org/2000/svg">
  <defs
     id="defs157" />
  <sodipodi:namedview
     id="namedview155"
     pagecolor="#ffffff"
     bordercolor="#000000"
     borderopacity="0.25"
     inkscape:showpageshadow="2"
     inkscape:pageopacity="0.0"
     inkscape:pagecheckerboard="0"
     inkscape:deskcolor="#d1d1d1"
     showgrid="false"
     inkscape:zoom="0.12783645"
     inkscape:cx="1634.9015"
     inkscape:cy="2057.3163"
     inkscape:window-width="1366"
     inkscape:window-height="705"
     inkscape:window-x="-8"
     inkscape:window-y="-8"
     inkscape:window-maximized="1"
     inkscape:current-layer="f063c239-1648-49ee-906d-0a4a5522b7d6" />
  <g
     style="isolation:isolate"
     id="g151">
    <g
       id="f063c239-1648-49ee-906d-0a4a5522b7d6"
       data-name="Layer 1">
      <path
         d="M3936.11,3649.19c0,42.85-830.44,77.6-1854.83,77.6S226.44,3692,226.44,3649.19s830.44-77.61,1854.84-77.61S3936.11,3606.33,3936.11,3649.19Z"
         style="fill:#bac4c6;mix-blend-mode:multiply;opacity:0.39"
         id="path4"
         transform="translate(0 0)" />
      <path
         d="M1690.77,2067c-1.47-3.27-2.84-6.34-4.11-9.16,26.4,19.47,33.69,48.93,39.48,67.91-6.58-5.12-10.77-9.37-13.17-12.92C1708.12,2105.66,1698.51,2084.23,1690.77,2067Z"
         style="fill:#775344"
         id="path6"
         transform="translate(0 0)" />
      <path
         d="M1752.09,2185c-45.31,6.22-77.22,20.3-89.49,22.36s-55.71-38.74-55.71-56.49-22.48-45.63-61.36-84.95-164-180.67-164-180.67l13.85-189.57s134,209.35,167.65,250.74c18.35,22.56,41.09,45.09,64.31,65.31,7.61,6.61,15.24,13,22.82,19q4.76,3.8,9.43,7.39h0c2.07,2.78,9.78,22.89,15.6,35.84,8.83,19.67,18,40,23.64,48.39q9.84,14.61,47.09,36.37C1753.32,2170.87,1758.64,2184.14,1752.09,2185Z"
         style="fill:#775344"
         id="path8"
         transform="translate(0 0)" />
      <path
         d="M1687.43,2119.63c5.32,9.06,10.56,18.19,15.76,27.27l7.78,13.48c2.58,4.39,5.2,8.8,7.74,12.53a15,15,0,0,1-24.88,16.94c-.26-.39-.51-.78-.72-1.17l0-.1c-2.88-5.22-5.16-10-7.46-14.87l-6.63-14.34c-4.36-9.51-8.71-18.93-13.15-28.34a12.22,12.22,0,0,1,21.57-11.45Z"
         style="fill:#896051"
         id="path10"
         transform="translate(0 0)" />
      <path
         d="M1662.8,2123.11c4.11,9.95,8.37,20,12.71,29.83,2.16,4.92,4.37,9.82,6.62,14.62,1.13,2.39,2.26,4.76,3.41,7.05s2.33,4.55,3.37,6.25a14.1,14.1,0,1,1-24.07,14.69c-.15-.25-.3-.49-.44-.75l-.06-.14c-1.62-3.07-2.77-5.71-3.94-8.38s-2.22-5.28-3.26-7.89c-2.09-5.21-4.06-10.37-6-15.55-3.87-10.36-7.56-20.65-11.19-31.08a12.21,12.21,0,0,1,22.8-8.73Z"
         style="fill:#896051"
         id="path12"
         transform="translate(0 0)" />
      <path
         d="M1649.19,2148.33c1.25,3.54,2.62,7.21,4,10.79s2.82,7.13,4.31,10.64,3,6.95,4.61,10.27a85.37,85.37,0,0,0,5,9.14,12.24,12.24,0,1,1-20.52,13.36,13.07,13.07,0,0,1-.74-1.3l-.14-.29a111.73,111.73,0,0,1-4.9-12.23c-1.35-4-2.55-7.88-3.68-11.78s-2.17-7.8-3.17-11.69-1.92-7.75-2.83-11.77a9.41,9.41,0,0,1,18-5.23Z"
         style="fill:#896051"
         id="path14"
         transform="translate(0 0)" />
      <path
         d="M1745.9,2158.77q-37.31-21.8-47.09-36.37c-5.67-8.4-14.81-28.72-23.64-48.39-5.82-13-13.53-33.06-15.6-35.84h0a23.82,23.82,0,0,0-9.43-7.39c-7.58-6-15.21-12.39-22.82-19a51.88,51.88,0,0,1,46.25,19.92c2.57,3.31,6.63,11.85,13.12,26.16,1.27,2.82,2.64,5.89,4.11,9.16,7.74,17.22,17.35,38.65,22.2,45.83,2.4,3.55,6.59,7.8,13.17,12.92,2.28,7.56,4.36,13.47,7.31,16.41A97.23,97.23,0,0,1,1745.9,2158.77Z"
         style="fill:#c75b31"
         id="path16"
         transform="translate(0 0)" />
      <path
         d="M1659.54,2038.16q-4.68-3.6-9.43-7.39A23.82,23.82,0,0,1,1659.54,2038.16Z"
         style="fill:#c75b31"
         id="path18"
         transform="translate(0 0)" />
      <path
         d="M1659.54,2038.16q-4.68-3.6-9.43-7.39A23.82,23.82,0,0,1,1659.54,2038.16Z"
         style="fill:#c75b31"
         id="path20"
         transform="translate(0 0)" />
      <path
         d="M3212.08,2674l-5.95,16c-4.84-1.81-32.05-10.67-73.26-24.06-146.18-47.54-488.49-158.88-801.07-270-307.21-109.19-500.69-187.47-585.9-237.25a97.23,97.23,0,0,0-12.45-16.6c-3-2.94-5-8.85-7.31-16.41,43.55,33.83,191.58,105,611.36,254.15,312.37,111,654.55,222.31,800.67,269.84C3181,2663.68,3206.88,2672.1,3212.08,2674Z"
         style="fill:#c75b31"
         id="path22"
         transform="translate(0 0)" />
      <path
         d="M1686.66,2057.85s20.82-2,30.64,2.94,30.06,25.26,35.73,35.07.75,23.15,2.86,33,4.91,27.54-11.93,27.1S1686.66,2057.85,1686.66,2057.85Z"
         style="fill:#775344"
         id="path24"
         transform="translate(0 0)" />
      <path
         d="M1737.65,2189a14.08,14.08,0,0,1-12.82-8.24,200.6,200.6,0,0,0-12.32-22.21,14.09,14.09,0,1,1,23.62-15.37,226.46,226.46,0,0,1,14.33,25.86,14.1,14.1,0,0,1-7,18.68A13.87,13.87,0,0,1,1737.65,2189Z"
         style="fill:#896051"
         id="path26"
         transform="translate(0 0)" />
      <rect
         x="1334.08"
         y="3506.57"
         width="122.46"
         height="110.73"
         transform="translate(-2226.73 4792.81) rotate(-87.38)"
         style="fill:#fff"
         id="rect28" />
      <path
         d="M1171.47,2619.69s84.55,103.12,90.24,196.51c3.17,52,27.61,329.59,46.44,705.09h175.14s-16.78-461.51-17.15-540.53c-.61-128.93,0-262.45-20.14-395.29-43.35-285.42-51.76-357-73.73-453.68-10.58-46.51-98.94,0-98.94,0Z"
         style="fill:#334d94"
         id="path30"
         transform="translate(0 0)" />
      <rect
         x="424.39"
         y="3206.84"
         width="122.45"
         height="110.73"
         transform="translate(-1189.58 421.16) rotate(-22.06)"
         style="fill:#fff"
         id="rect32" />
      <path
         d="M946.59,2120.69s-43.75,41.2-28.65,194.19c4.42,44.82,35.54,129.17,71.15,273,21.15,85.46,38.55,191.59,41.73,242.61,1.7,27.25-14.55,39-43.69,58.77-49,33.29-502.25,307-502.25,307l77.19,140.57s492.64-215,572.79-268.21c122.33-81.28,202.61-168.45,202.61-421.13,0-142.91-14.77-515.68-14.77-515.68Z"
         style="fill:#334d94"
         id="path34"
         transform="translate(0 0)" />
      <path
         d="M1182.36,1254.44c7.38,4.09,70.59,30.92,81.36,32.91,70.75,13.25,36.86-77.91,36.86-77.91l12.27-61.92-126.77-52c-.1,0-14.85-17.83-14.85-17.83l-12,21.72-11.94,75.1S1154.06,1238.69,1182.36,1254.44Z"
         style="fill:#775344"
         id="path36"
         transform="translate(0 0)" />
      <path
         d="M1190.88,1077.67s14.33,85,44.32,95c10.74,3.6,70.34,11.71,70.34,11.71s-46.08,28.14-101-9.94c-18.92-13.11-43.16-44.91-37.68-69.41C1170,1091.23,1190.88,1077.67,1190.88,1077.67Z"
         style="fill:#7f4043;mix-blend-mode:multiply"
         id="path38"
         transform="translate(0 0)" />
      <path
         d="M946.59,2120.69c.48,6.83,9.76,10.51,16.21,10.51,94.19,0,409.47.59,409.47.59s48.15-327.3,54.11-517.74c.6-18.28.49-35.31-.43-50.65a489.45,489.45,0,0,0-12.26-81.67c-32.15-138.33-50.41-227.85-113.11-272.29,0,0-10,58.94-39.42,58.54-89.54-1.19-113.88-93.49-113.88-93.49s-43,9.87-106.17,44.91C973.43,1256.86,903.74,1299,931,1481.3,956.62,1653.14,942.25,2053.49,946.59,2120.69Z"
         style="fill:#c75b31"
         id="path40"
         transform="translate(0 0)" />
      <path
         d="M1098.59,1638.87c74.75,11,264.26-5.39,327.79-24.82.6-18.28.49-35.31-.43-50.65a489.45,489.45,0,0,0-12.26-81.67c-28.63,16-192.89,30.5-278.68,16Z"
         style="fill:#fff"
         id="path42"
         transform="translate(0 0)" />
      <path
         d="M971,1258.44C843.87,1324.11,757.9,1697,722.21,1767.65s331.18,442.38,339.36,456.28c6.55,11.13,38.79.49,54.26-20.23,18.28-24.43,19.56-60.73,19.56-60.73s-201-280.61-221.81-332.33c-2.59-6.42-10-23.32-6.41-35,14.63-48,64.88-132.54,120.31-213.54,39.89-58.29,76.77-125.52,88.33-165.17C1138.73,1318.35,1108.38,1187.43,971,1258.44Z"
         style="fill:#775344"
         id="path44"
         transform="translate(0 0)" />
      <path
         d="M1534.28,3683.27a72.78,72.78,0,0,0,10.36.33c22.83-1.15,69.65-2.54,90.43-15,7.78-15.45-13.86-32.09-41.39-36.07a45.3,45.3,0,0,1-9.44-2.69C1562.83,3634.4,1537.41,3647.39,1534.28,3683.27Z"
         style="fill:#7297fb"
         id="path46"
         transform="translate(0 0)" />
      <path
         d="M1306.72,3635.72c7.08,11.91,34.86,20,61.1,23.75-.94-26.89-5.15-66.57-20.68-94.26a34.37,34.37,0,0,1-5.91-2.58c-13.41-7.68-14.56-6.15-23.78,15.67C1312.81,3589.3,1305.55,3613.86,1306.72,3635.72Z"
         style="fill:#7297fb"
         id="path48"
         transform="translate(0 0)" />
      <path
         d="M1306.72,3635.72c1.12,21.55,12.49,43.4,40.42,44.21,7.79.22,108.37,5,145.14,5.86,9.89.21,25,1.39,41.73,2.22,33.72,1.7,74.09,2,91.65-9.63,4.69-3.12,7.75-6.41,9.41-9.74-20.78,12.42-67.6,13.81-90.43,15a72.78,72.78,0,0,1-10.36-.33c-35.09-3.14-102.82-24.11-127.13-21.89-9.82.89-24.34.22-39.33-1.91C1341.58,3655.76,1313.8,3647.63,1306.72,3635.72Z"
         style="fill:#fff"
         id="path50"
         transform="translate(0 0)" />
      <path
         d="M1347.14,3565.21c15.53,27.69,19.74,67.37,20.68,94.26,15,2.13,29.51,2.8,39.33,1.91,24.31-2.22,92,18.75,127.13,21.89,3.13-35.88,28.55-48.87,50-53.39-16-6.14-38.89-21.23-60.55-37l-6.14-4.5c-3.61-2.69-7.12-5.33-10.55-8-2.14-1.62-4.21-3.22-6.26-4.81-4-3.1-7.86-6.13-11.44-8.94-2.08-1.66-4-3.23-5.93-4.75-12.15-9.77-20.11-16.51-20.11-16.51-8.77-7.32-24.55,10.28-42.16,21C1405.49,3575.86,1365.45,3571.66,1347.14,3565.21Z"
         style="fill:#a1b9fd"
         id="path52"
         transform="translate(0 0)" />
      <path
         d="M1498.35,3606l6.42.42c.4-5.76,11.18-10.86,18.92-13.55l-6.14-4.5C1508.8,3591.86,1498.92,3597.69,1498.35,3606Z"
         style="fill:#fff"
         id="path54"
         transform="translate(0 0)" />
      <path
         d="M1475.66,3595.38l6.42.42c.49-7.6,19-14,24.92-15.37-2.14-1.62-4.21-3.22-6.26-4.81C1491.32,3578.56,1476.33,3585.06,1475.66,3595.38Z"
         style="fill:#fff"
         id="path56"
         transform="translate(0 0)" />
      <path
         d="M1461,3580.8l6.38.44c.44-6.6,14.38-12.3,22-14.56-2.08-1.66-4-3.23-5.93-4.75C1474,3565.18,1461.58,3571.4,1461,3580.8Z"
         style="fill:#fff"
         id="path58"
         transform="translate(0 0)" />
      <path
         d="M1495.3,3605.78a6.27,6.27,0,1,0,6.26-6.27A6.26,6.26,0,0,0,1495.3,3605.78Z"
         style="fill:#693c2e"
         id="path60"
         transform="translate(0 0)" />
      <path
         d="M1472.59,3592.55a6.27,6.27,0,1,0,6.26-6.27A6.25,6.25,0,0,0,1472.59,3592.55Z"
         style="fill:#693c2e"
         id="path62"
         transform="translate(0 0)" />
      <path
         d="M1457.88,3580a6.27,6.27,0,1,0,6.26-6.27A6.27,6.27,0,0,0,1457.88,3580Z"
         style="fill:#693c2e"
         id="path64"
         transform="translate(0 0)" />
      <path
         d="M445.68,3435.81a73.31,73.31,0,0,0,4.05,9.56c10.57,20.26,31.38,62.22,51.34,75.92,17.29.62,23.37-26,15.5-52.68a44.74,44.74,0,0,1-1.51-9.69C502,3441.35,479.6,3423.67,445.68,3435.81Z"
         style="fill:#7297fb"
         id="path66"
         transform="translate(0 0)" />
      <path
         d="M393.87,3209.18c-7.86,11.42-3.65,40.05,3.94,65.44,24-12.08,58.33-32.47,77-58.14a35.72,35.72,0,0,1-.11-6.46c1.38-15.39-.5-15.8-24.17-15.06C438.6,3195.33,413.26,3199,393.87,3209.18Z"
         style="fill:#7297fb"
         id="path68"
         transform="translate(0 0)" />
      <path
         d="M393.87,3209.18c-19.1,10-34.23,29.48-23.29,55.2,3.06,7.17,40.68,100.57,55.28,134.33,3.95,9.06,9.18,23.29,15.41,38.84,12.55,31.34,29.13,68.16,47,79.25,4.78,3,9.05,4.36,12.77,4.49-20-13.7-40.77-55.66-51.34-75.92a73.31,73.31,0,0,1-4.05-9.56c-11.79-33.2-21-103.48-33.18-124.65-4.92-8.55-10.38-22-14.69-36.54C390.22,3249.23,386,3220.6,393.87,3209.18Z"
         style="fill:#fff"
         id="path70"
         transform="translate(0 0)" />
      <path
         d="M474.81,3216.48c-18.67,25.67-53,46.06-77,58.14,4.31,14.52,9.77,28,14.69,36.54,12.16,21.17,21.39,91.45,33.18,124.65,33.92-12.14,56.33,5.54,69.38,23.11-1.08-17.06,3.05-44.21,8.32-70.46.5-2.5,1-5,1.53-7.47.93-4.39,1.86-8.69,2.82-12.9l1.77-7.7c1.14-4.95,2.29-9.71,3.35-14.13.63-2.58,1.26-5,1.83-7.36,3.82-15.13,6.62-25.19,6.62-25.19,3-11-19.61-18-36.69-29.55C489.5,3273.94,476.61,3235.79,474.81,3216.48Z"
         style="fill:#a1b9fd"
         id="path72"
         transform="translate(0 0)" />
      <path
         d="M500.87,3370.92l2.3,6c5.4-2,14.55,5.63,20.21,11.55.5-2.5,1-5,1.53-7.47C518.1,3374.49,508.67,3368,500.87,3370.92Z"
         style="fill:#fff"
         id="path74"
         transform="translate(0 0)" />
      <path
         d="M501.07,3345.84l2.3,6c7.11-2.73,20.67,11.41,24.36,16.23l1.77-7.7C522.89,3353.05,510.74,3342.16,501.07,3345.84Z"
         style="fill:#fff"
         id="path76"
         transform="translate(0 0)" />
      <path
         d="M508.18,3326.4l2.28,6c6.16-2.35,17.17,7.94,22.39,13.88.63-2.58,1.26-5,1.83-7.36C527.84,3331.75,517,3323,508.18,3326.4Z"
         style="fill:#fff"
         id="path78"
         transform="translate(0 0)" />
      <path
         d="M499.82,3368.05a6.27,6.27,0,0,0,5.23,11.39,6.27,6.27,0,1,0-5.23-11.39Z"
         style="fill:#693c2e"
         id="path80"
         transform="translate(0 0)" />
      <path
         d="M502.37,3341.88a6.26,6.26,0,1,0,8.3,3.07A6.24,6.24,0,0,0,502.37,3341.88Z"
         style="fill:#693c2e"
         id="path82"
         transform="translate(0 0)" />
      <path
         d="M507.6,3323.28a6.26,6.26,0,1,0,8.31,3.07A6.29,6.29,0,0,0,507.6,3323.28Z"
         style="fill:#693c2e"
         id="path84"
         transform="translate(0 0)" />
      <path
         d="M835.1,1454.33l223.71,85.85s76.58-77.81,82.3-162.86c6-88.62-26.56-138.27-74.23-145.48C891.94,1196.78,835.1,1454.33,835.1,1454.33Z"
         style="fill:#c75b31"
         id="path86"
         transform="translate(0 0)" />
      <path
         d="M1060.62,1541.47l-3.64-2.59c102.38-143.37,93.83-206.28,72-248.9-24.5-47.76-54.5-56.41-80.61-58.57l.36-4.45c27.34,2.26,58.73,11.28,84.22,61C1155.4,1331.77,1164.4,1396.17,1060.62,1541.47Z"
         style="fill:#6b5006"
         id="path88"
         transform="translate(0 0)" />
      <path
         d="M1272.57,2944.14l-5.53-3.24c62.82-107.38,88.78-400.26,63.12-712.22l6.4-.53C1362.31,2541.3,1336,2835.73,1272.57,2944.14Z"
         style="fill:#21345e"
         id="path90"
         transform="translate(0 0)" />
      <path
         d="M1389.59,971.61c6.06,50.29,15,99-25.45,168.1-10.46,17.83-12.87,35.66-38.9,41.61-50.72,11.59-115.87-4-140.84-32.76-28.67-32.9-58.83-77-70.15-117.1-21.19-74.94,16-150.86,28.22-163.52,26.72-27.82,140.29-58.54,175.92-47.1C1384.38,842,1381.61,905.51,1389.59,971.61Z"
         style="fill:#775344"
         id="path92"
         transform="translate(0 0)" />
      <path
         d="M1313.83,1048.93a131.25,131.25,0,0,1-22.08.11l.42-3.1c13.51.76,26.83,1.39,35.68-4.68,4.56-3.14,4.84-9.06,4.74-12.9-.15-5.3-4.33-8.88-9.62-13.4-4.6-4-9.85-8.43-13.43-15.13-8.07-15-5-35.65-4.89-36.52l3.1.48c0,.2-3,20.45,4.55,34.56,3.31,6.18,8.31,10.45,12.71,14.22,5.41,4.64,10.52,9,10.72,15.7.17,6.46-1.83,11.76-5.79,15.31C1326.19,1047,1321.77,1047.88,1313.83,1048.93Z"
         style="fill:#3d2335"
         id="path94"
         transform="translate(0 0)" />
      <path
         d="M1178,959.45c2.86,7.06,17.87-6.24,31.63-10.34s31.73-.7,31.84-9.36c.1-8-20.53-8.26-42.86.31C1184.21,945.57,1174.81,951.63,1178,959.45Z"
         style="fill:#320d16"
         id="path96"
         transform="translate(0 0)" />
      <path
         d="M1366.82,930c-.52,7.6-15,1.3-29.34,1.66s-35.45,7.92-37.09-.7c-1.5-7.86,16.95-14.22,40.83-13C1356.6,918.78,1367.41,921.63,1366.82,930Z"
         style="fill:#320d16"
         id="path98"
         transform="translate(0 0)" />
      <path
         d="M1245.14,1077.87c6.43,4.1,44.81,5.41,67.56,1.79a108.82,108.82,0,0,0,42.76-16.77s-7,55-53.53,56.59S1245.14,1077.87,1245.14,1077.87Z"
         style="fill:#fff"
         id="path100"
         transform="translate(0 0)" />
      <path
         d="M1329.85,858.29c-28.51,4.08-77.51,7.91-132.81-5.62s-71.46,45.77-69.79,78.34c.91,17.94,33.91,133.69,33.91,133.69l-13.46,1.4,3.6,39.62s-55.8-24.59-84.58-77.36c-5.71-10.46-7.66-61-12.42-73.48-6.75-17.72-16.46-30.25-19.65-52-1.61-11,9.19-30.21,10.82-41.38,2.76-19-.27-38.3,13.12-53.08,16.35-18,41.21-30.62,76-32.21,7.69-3,19.38-20.45,33.68-26.85,15.13-6.78,33.2-2.59,52.5-9.18,16.52-5.65,25.37-17.88,42.68-20.58,18.1-2.83,42.71,12,59.33,15.26,14.93,3,31.57-14.68,43.47-4.5C1376.49,739,1414.41,846.18,1329.85,858.29Z"
         style="fill:#320d16"
         id="path102"
         transform="translate(0 0)" />
      <path
         d="M1392.52,1027.77a18.46,18.46,0,1,1-21.18-15.64A18.63,18.63,0,0,1,1392.52,1027.77Z"
         style="fill:#ab5354;opacity:0.26"
         id="path104"
         transform="translate(0 0)" />
      <path
         d="M1227.63,1044.24a18.46,18.46,0,1,1-21.17-15.65A18.62,18.62,0,0,1,1227.63,1044.24Z"
         style="fill:#ab5354;opacity:0.26"
         id="path106"
         transform="translate(0 0)" />
      <path
         d="M1136.54,1077.59a46.11,46.11,0,0,0,14.87-1.57,53.48,53.48,0,0,0,15.13-6.82,43.86,43.86,0,0,0,6.38-4.89s-2.71-7.57-6.63-17.51c-6.2-15.76-15.4-37.5-21.45-44.65s-11.63-11.72-17.84-12c-6.63-.3-14,4.26-23.44,15.84C1085.23,1028.42,1115,1076.31,1136.54,1077.59Z"
         style="fill:#775344"
         id="path108"
         transform="translate(0 0)" />
      <path
         d="M1225.72,989.68c1.3,5.94,6.82,9.78,12.35,8.57s9-7,7.67-12.94-6.82-9.77-12.37-8.56S1224.42,983.74,1225.72,989.68Z"
         style="fill:#070203"
         id="path110"
         transform="translate(0 0)" />
      <path
         d="M1336,971.44c1.25,5.8,6.66,9.55,12.06,8.37s8.74-6.84,7.48-12.63-6.67-9.55-12.06-8.37S1334.73,965.64,1336,971.44Z"
         style="fill:#070203"
         id="path112"
         transform="translate(0 0)" />
      <path
         d="M3338.05,3036.69s15.86,140.89,41.35,225.6,62.3,264.85,132.39,289.77c42.36,15.05,26.86,57.92-35.56,57.92s-54.13-25.12-108.87-132.13-189.13-295.57-182.79-349.18S3338.05,3036.69,3338.05,3036.69Z"
         style="fill:#da6"
         id="path114"
         transform="translate(0 0)" />
      <path
         d="M2607.45,2987.67s-23.89,147.86-53.45,199.72-148.85,178.94-143.67,207.46,46.69,158.23,72.63,168.6,44.08,46.41,7.79,46.53-71.84-18-95.56-59.49-99-155.64-67.85-197.11,46.67-83,20.75-168.6S2607.45,2987.67,2607.45,2987.67Z"
         style="fill:#da6"
         id="path116"
         transform="translate(0 0)" />
      <path
         d="M2270,2846.72c24.41,39.11,9.25-31.58,59.17-10.93,26.09,10.75,73.39-17.43,84.15-43.5s-2.24-22-28.34-32.81c-47.55-19.63-74.25-84.93-78.39-124.77s14.78-84.87,50.68-106.15c63.83-37.8,187.21,4.69,188-23.48.77-27.47-139.65-97.73-250.08-42.3-71,35.61-98.27,105.06-90.22,182.48C2208.17,2675.44,2230,2765,2270,2846.72Z"
         style="fill:#da6"
         id="path118"
         transform="translate(0 0)" />
      <path
         d="M3626.31,2581.46l28.69,1.23c8.17.38,61.56,24.83,87.66,81.49,10.9,23.68,55.72,107.82,12.25,151.13s-109.06-59-109.06-59Z"
         style="fill:#d28e33"
         id="path120"
         transform="translate(0 0)" />
      <path
         d="M3044.32,2691.9l.1.1c48.09,54.62,306.7,347.19,333.74,344.72a4.47,4.47,0,0,0,.52-.11.6.6,0,0,0,.44-.21.9.9,0,0,1,.32-.1c49.37-35.47,95.48-76.21,166.19-132.24,100.62-79.72,166.42-173.57,169.34-207.3,5-57.43-38.32-103.15-65.16-119.53-60.67-37.19-104.41-55.27-226.18-9.92-56,20.91-139.72,69.65-267.29,109.25C3132.46,2684,3044.32,2691.9,3044.32,2691.9Z"
         style="fill:#e9c799"
         id="path122"
         transform="translate(0 0)" />
      <path
         d="M3545.6,2904.1c4,12.66,22.71,26.08,38.71,35,2.67,1.52,5.27,2.88,7.72,4.09,17,8.52,58.09,25.1,83.71,22,16.73-2,30.14-10.88,36.66-22.27a31,31,0,0,0,4.23-15.31c0-12.29,2.43-15.41,5.26-20.5,0-.05.1-.12.11-.18a43.33,43.33,0,0,0,3.95-9.36,104,104,0,0,1,4.5-12.37c.41-1,.84-1.88,1.23-2.68v0a47.09,47.09,0,0,1,2.91-5.27l-3.16-1.56-8.09-4-7.18-3.54-21.06-10.39-22.37-11s-117.58,23.41-127.13,29.8S3541,2889.29,3545.6,2904.1Z"
         style="fill:#020500"
         id="path124"
         transform="translate(0 0)" />
      <path
         d="M3631.38,2897.8a12.56,12.56,0,0,0,1.39,5.65c4.32,10,18.72,27,40,33.91,26.15,8.58,43.9-9.75,43.9-9.75,0-12.29,2.43-15.41,5.26-20.5,0-.05.1-.12.11-.18a66,66,0,0,0,5-9.89,27.56,27.56,0,0,0,3.71-2.25,25.3,25.3,0,0,0,0-8.39c-.07-.4-.15-.8-.25-1.2a14.52,14.52,0,0,0-6-8.5c-4.07-2.75-9.79-3.93-16.4-4-19.14-.28-45.85,8.78-62.16,16.21C3637.26,2892.86,3631.52,2896.36,3631.38,2897.8Z"
         style="fill:#4f453a"
         id="path126"
         transform="translate(0 0)" />
      <path
         d="M3645.89,2888.9a15.92,15.92,0,0,0,.75,3.93,53.26,53.26,0,0,0,4,9.21c13,23.36,39.12,22.91,55.64,18.45,6.62-1.77,11.76-7.17,15.65-13.38,0-.05.1-.12.11-.18a66,66,0,0,0,5-9.89,89,89,0,0,0,3.71-10.64c.63-2.26.94-3.7,1-3.88v0a24.64,24.64,0,0,0-.25-6.83c-2.57-14.24-18.72-19.17-36.33-17.91C3671.29,2859.43,3644.86,2872.45,3645.89,2888.9Z"
         style="fill:#ff8082"
         id="path128"
         transform="translate(0 0)" />
      <path
         d="M3545.6,2876.52c13.84-6.09,61.68,22.19,87.17,26.93a33.84,33.84,0,0,0,4.53.6c3.82.27,8.34-.53,13.3-2,18.53-5.49,43-20.85,57.45-29.35,3.26-1.92,6-3.51,8.11-4.54a10.91,10.91,0,0,1,3.69-1.35c1.51,0,2.64,1.94,3.49,4.89a43.26,43.26,0,0,1,1.11,5,161.16,161.16,0,0,1,1.5,20.87l1-.53a27.56,27.56,0,0,0,3.71-2.25c30.89-21.52,39.22-101.17,26.87-107.36-13-6.44-69.47-87.61-80.93-97.16-38.82-32.37-139.29,98.8-153.23,132.82S3530.86,2883,3545.6,2876.52Z"
         style="fill:#fdebe3"
         id="path130"
         transform="translate(0 0)" />
      <path
         d="M3757.31,2780.06c-9.4-14.84-25.54-12.75-39-12.07s-30.52-.68-43.29,17.73,31.23,65.27,47.54,64.55S3770.78,2801.33,3757.31,2780.06Z"
         style="fill:#020500"
         id="path132"
         transform="translate(0 0)" />
      <path
         d="M3606.93,2697.79c-4.36,6.59-9.23,21.26-22,22.68s-52.47,4.25-58.16,0,.77-28.37,18.84-39S3619.13,2679.33,3606.93,2697.79Z"
         style="fill:#d28e33"
         id="path134"
         transform="translate(0 0)" />
      <path
         d="M3559,2703.06a15.09,15.09,0,1,0,15.08-14.71A14.91,14.91,0,0,0,3559,2703.06Z"
         style="fill:#000101"
         id="path136"
         transform="translate(0 0)" />
      <path
         d="M3462.22,2610.53s20.56,29.09,16.32,46.81,28.35,139.73,22.69,175.92-23.39,43.27-36.17,36.18-44.94-44.7-89.16-54.63-37.38-109.94,0-150.38S3441,2598.48,3462.22,2610.53Z"
         style="fill:#d28e33"
         id="path138"
         transform="translate(0 0)" />
      <path
         d="M3711.69,2710.17s-14.79,4.31-20.81-3.37c-4.22-5.39-2.73-28,9.09-30S3725.65,2693.16,3711.69,2710.17Z"
         style="fill:#d28e33"
         id="path140"
         transform="translate(0 0)" />
      <path
         d="M3690.9,2694.8a12.83,12.83,0,1,0,12.81-12.77A12.79,12.79,0,0,0,3690.9,2694.8Z"
         style="fill:#000101"
         id="path142"
         transform="translate(0 0)" />
      <path
         d="M3584.31,2939.11c2.67,1.52,5.27,2.88,7.72,4.09,17,8.52,58.09,25.1,83.71,22,16.73-2,30.14-10.88,36.66-22.27-10.38,5.33-25.79,11.12-39.67,7.83-23.69-5.6-31.86-16-41.35-15.16C3624,2936.19,3602,2947.84,3584.31,2939.11Z"
         style="fill:#d28e33"
         id="path144"
         transform="translate(0 0)" />
      <path
         d="M3379.48,3036.31a.79.79,0,0,0-.36.1H3379a.47.47,0,0,1-.38.17,3.08,3.08,0,0,1-.44.11c-4.52,1.61-20,7-41.19,15.41-41.45,16.36-104.9,44.1-152.35,76.52-76.71,52.34-183.1,380.2-170.41,418.44,12.85,38.37,110.71,76.62,38.35,80.94s-106.41,4.23-110.64-72.38,42.57-372.86,29.71-427c0,0-174.54-11.48-251.15-62.61-65.52-43.6-190.06-18.41-270.05,50.85l-.09.09a241.68,241.68,0,0,0-36.38,38.83c-72.29,97.57-276.61,226.06-310.74,308.2-13.72,33.09-10.33,94.83,9.69,113.17s29.21,38.44-18,40-78.77-20-73.89-95.12c5.09-75.1,106.78-218.53,135.16-258.57s1.71-241.94,46.82-323.71,160.11-193.48,160.11-193.48c63.91,12,208.44-48.18,340.32-60,86-7.77,184.11,4,274.25,6.4,22.85.46,45.13.37,66.55-.75,23.79-1.32,72.93-6.39,94.19-11C3254.58,2655.55,3379.48,3036.31,3379.48,3036.31Z"
         style="fill:#e9c799"
         id="path146"
         transform="translate(0 0)" />
      <path
         d="M3200.41,2661.83s92.79,221.18,251.75,317l-28.58,22.6s-171.38-125.91-247.87-331.1Z"
         style="fill:#775344"
         id="path148"
         transform="translate(0 0)" />
    </g>
  </g>
</svg>
