<?xml version="1.0" encoding="UTF-8" standalone="no"?>
<svg
   id="Слой_1"
   viewBox="-380.2 274.7 65.7 65.8"
   version="1.1"
   sodipodi:docname="facebook.svg"
   xml:space="preserve"
   inkscape:version="1.2 (dc2aedaf03, 2022-05-15)"
   xmlns:inkscape="http://www.inkscape.org/namespaces/inkscape"
   xmlns:sodipodi="http://sodipodi.sourceforge.net/DTD/sodipodi-0.dtd"
   xmlns="http://www.w3.org/2000/svg"
   xmlns:svg="http://www.w3.org/2000/svg"
   xmlns:rdf="http://www.w3.org/1999/02/22-rdf-syntax-ns#"
   xmlns:dc="http://purl.org/dc/elements/1.1/"><defs
     id="defs1747" /><sodipodi:namedview
     id="namedview1745"
     pagecolor="#ffffff"
     bordercolor="#000000"
     borderopacity="0.25"
     inkscape:showpageshadow="2"
     inkscape:pageopacity="0.0"
     inkscape:pagecheckerboard="0"
     inkscape:deskcolor="#d1d1d1"
     showgrid="false"
     inkscape:zoom="5.4256429"
     inkscape:cx="21.748575"
     inkscape:cy="32.254242"
     inkscape:window-width="1366"
     inkscape:window-height="705"
     inkscape:window-x="-8"
     inkscape:window-y="-8"
     inkscape:window-maximized="1"
     inkscape:current-layer="Слой_1" /><style
     id="style1698">.st0{fill:#e0e0e0}.st1{fill:#fff}.st2{clip-path:url(#SVGID_2_);fill:#fbbc05}.st3{clip-path:url(#SVGID_4_);fill:#ea4335}.st4{clip-path:url(#SVGID_6_);fill:#34a853}.st5{clip-path:url(#SVGID_8_);fill:#4285f4}</style><metadata
     id="metadata1742"><rdf:RDF><rdf:Description
         about="https://iconscout.com/legal#licenses"
         dc:title="google-g-2015"
         dc:description="google-g-2015"
         dc:publisher="Iconscout"
         dc:date="2017-06-06"
         dc:format="image/svg+xml"
         dc:language="en"><dc:creator><rdf:Bag><rdf:li>Icon Mafia</rdf:li></rdf:Bag></dc:creator></rdf:Description></rdf:RDF></metadata><path
     style="fill:#1777f1;stroke:none;stroke-width:0.0448666"
     d="m -352.9227,339.6697 v -22.88197 h -7.8068 v -8.92845 h 7.8068 v -5.69807 c 0,-1.78546 -0.0143,-3.55187 0.44347,-5.29426 0.32626,-1.24231 0.79903,-2.45626 1.48817,-3.54445 0.55443,-0.87549 1.21311,-1.66751 1.97175,-2.37395 4.39726,-4.09439 10.71701,-3.24888 16.15199,-2.56137 v 8.34517 h -3.49961 c -1.32382,0 -2.68426,0.021 -3.81365,0.81699 -1.18187,0.83299 -1.51272,2.31404 -1.57209,3.66968 -0.0966,2.20689 -0.0431,4.42897 -0.0431,6.64026 h 8.92845 l -1.17551,6.68513 -0.27906,1.61519 -0.17992,0.582 -0.56397,0.0461 h -1.39087 -5.33912 v 22.88197 c 0.8561,-0.0682 1.72637,-0.3365 2.55739,-0.54424 2.45933,-0.61467 4.8604,-1.55686 7.08892,-2.76199 2.76917,-1.49808 5.41944,-3.3614 7.61971,-5.62626 2.26352,-2.33038 4.19008,-4.89809 5.73664,-7.75788 3.8325,-7.0866 4.70606,-15.66196 2.66642,-23.42038 -2.41203,-9.17235 -9.01056,-17.06722 -17.63795,-21.02858 -3.97918,-1.82712 -8.2456,-2.78227 -12.60753,-2.97329 -3.98698,-0.1746 -8.14446,0.51047 -11.88965,1.88025 -4.57747,1.67418 -8.79193,4.31236 -12.20304,7.80917 -3.51298,3.60118 -6.22195,8.06716 -7.71658,12.87672 -3.07548,9.89649 -1.25745,21.04886 5.09799,29.29789 2.37923,3.08817 5.27227,5.76222 8.58518,7.82564 3.44633,2.14687 7.51425,3.90699 11.57558,4.42295 z"
     id="path2759" /></svg>
