<?xml version="1.0" encoding="utf-8"?>
<!-- Designed by Vexels.com - 2020 All Rights Reserved - https://vexels.com/terms-and-conditions/  -->
<svg version="1.1" id="Layer_1" xmlns="http://www.w3.org/2000/svg" xmlns:xlink="http://www.w3.org/1999/xlink" x="0px" y="0px"
	 viewBox="0 0 1200 1200" enable-background="new 0 0 1200 1200" xml:space="preserve">
<path fill="#FE3728" d="M966.961,162.223C832.491,107.199,679.992,159.696,600,279.889
	c-79.991-120.193-232.497-172.69-366.968-117.666C79,225.257,12.549,403.963,71.047,562.329
	c61.641,166.901,333.095,387.812,528.576,496.915c0.064,0.238,0.105,0.372,0.105,0.372c0.091-0.049,0.183-0.105,0.273-0.155
	c0.091,0.049,0.183,0.105,0.266,0.155c0,0,0.042-0.134,0.112-0.372C795.86,950.14,1067.307,729.23,1128.955,562.329
	C1187.451,403.963,1120.994,225.257,966.961,162.223z M612.163,528.04c0.929-45.552,10.842-82.883,27.497-89.092
	c27.612-10.293,77.305,31.807,86.908,81.095c12.427,63.779-36.694,85.998-48.494,87.246
	C634.487,611.898,611.233,573.593,612.163,528.04z M473.433,520.043c9.603-49.288,59.296-91.388,86.908-81.095
	c16.654,6.209,26.567,43.54,27.497,89.092c0.929,45.552-22.325,83.857-65.911,79.249
	C510.126,606.042,461.006,583.822,473.433,520.043z M391.655,647.561c-13.712-66.876,23.221-83.956,23.221-83.956
	c20.022-10.809,39.096,12.419,58.08,44.201c18.984,31.781,9.609,71.093-10.085,80.572
	C443.178,697.857,400.783,692.08,391.655,647.561z M744.269,793.053c-12.238,34.296-54.197,49.156-92.803,42.646
	c-8.034-1.354-16.056-2.859-23.968-4.816c-7.393-1.829-14.378-4.316-22.037-4.798c-8.347-0.525-16.059,0.149-24.022,2.428
	c-10.764,3.08-21.696,5.325-32.735,7.187c-38.606,6.509-80.565-8.35-92.803-42.646c-12.238-34.296,3.496-66.47,27.148-84.711
	c23.653-18.24,39.844-47.787,50.581-59.931c10.737-12.144,28.144-34.714,66.333-34.714l0.121,0.152l0.121-0.152
	c38.19,0,55.596,22.57,66.333,34.714c10.737,12.144,26.928,41.691,50.581,59.931S756.507,758.757,744.269,793.053z M808.345,647.561
	c-9.128,44.519-51.523,50.296-71.217,40.817c-19.693-9.479-29.069-48.791-10.085-80.572c18.984-31.782,38.059-55.01,58.08-44.201
	C785.125,563.605,822.057,580.685,808.345,647.561z"/>
</svg>
