<?xml version="1.0" encoding="iso-8859-1"?>
<!-- Generator: Adobe Illustrator 19.0.0, SVG Export Plug-In . SVG Version: 6.00 Build 0)  -->
<svg version="1.1" xmlns="http://www.w3.org/2000/svg" xmlns:xlink="http://www.w3.org/1999/xlink" x="0px" y="0px"
	 viewBox="0 0 520 520" style="enable-background:new 0 0 520 520;" xml:space="preserve">
<g id="_x31_069_x2C__Back_To_School_x2C__Doc_x2C__Document_x2C__Paper">
	<g>
		<path d="M360,40H80v340h30V75c0-2.761,2.239-5,5-5h245V40z"/>
		<path d="M160,480h280V120H160V480z M295,375c-5.523,0-10-4.478-10-10s4.477-10,10-10c5.521,0,10,4.478,10,10S300.521,375,295,375z
			 M395,369.667h-70c-2.762,0-5-2.238-5-5c0-2.762,2.238-5,5-5h70c2.762,0,5,2.238,5,5C400,367.429,397.762,369.667,395,369.667z
			 M205,180h110c2.762,0,5,2.239,5,5s-2.238,5-5,5H205c-2.761,0-5-2.239-5-5S202.239,180,205,180z M205,210h190c2.762,0,5,2.239,5,5
			s-2.238,5-5,5H205c-2.761,0-5-2.239-5-5S202.239,210,205,210z M205,240h190c2.762,0,5,2.239,5,5s-2.238,5-5,5H205
			c-2.761,0-5-2.239-5-5S202.239,240,205,240z M205,270h190c2.762,0,5,2.238,5,5s-2.238,5-5,5H205c-2.761,0-5-2.238-5-5
			S202.239,270,205,270z M205,300h190c2.762,0,5,2.238,5,5s-2.238,5-5,5H205c-2.761,0-5-2.238-5-5S202.239,300,205,300z M205,330
			h190c2.762,0,5,2.238,5,5s-2.238,5-5,5H205c-2.761,0-5-2.238-5-5S202.239,330,205,330z"/>
		<path d="M400,80H120v340h30V115c0-2.761,2.239-5,5-5h245V80z"/>
		<path d="M70,440c-5.514,0-10,4.486-10,10s4.486,10,10,10c5.515,0,10-4.486,10-10S75.515,440,70,440z"/>
		<path d="M470,55c0-8.271-6.729-15-15-15c-8.272,0-15,6.729-15,15s6.728,15,15,15C463.271,70,470,63.271,470,55z"/>
		<circle cx="475" cy="115" r="10"/>
		<circle cx="45" cy="405" r="10"/>
	</g>
</g>
<g id="Layer_1">
</g>
</svg>
