<svg version="1.1" xmlns="http://www.w3.org/2000/svg" xmlns:xlink="http://www.w3.org/1999/xlink" x="0px" y="0px" width="30px" height="30px" viewBox="0 0 512 512" style="enable-background:new 0 0 512 512;" xml:space="preserve">
<g id="D537_x2C__Favorite_x2C__friend_x2C__star_x2C__user">
<path style="fill:#FFFFFF;" d="M245.87,256.22L196,342.25l-49.87-86.03c2.5-0.15,5.01-0.22,7.54-0.22h84.66
		C240.86,256,243.37,256.07,245.87,256.22z" id="id_101"></path>
<path style="fill: rgb(25, 66, 74);" d="M96,486H26V383.67c0-67.979,53.13-123.55,120.13-127.45L196,342.25l49.87-86.03
		c67,3.9,120.13,59.47,120.13,127.45V486h-70H96z" id="id_102"></path>
<circle style="fill:#FFFFFF;" cx="196" cy="126" r="100" id="id_103"></circle>
<polygon style="fill: rgb(13, 19, 20);" points="486,196.21 448.36,223.56 462.74,267.8 425.1,240.46 387.47,267.8 401.84,223.56 
		364.21,196.21 410.73,196.21 425.1,151.97 439.48,196.21 	" id="id_104"></polygon>
<path style="fill: rgb(22, 35, 38);" d="M366,496H26c-5.523,0-10-4.478-10-10V383.67c0-72.837,56.905-133.204,129.549-137.433
		c2.608-0.157,5.347-0.237,8.121-0.237h84.66c2.774,0,5.513,0.08,8.141,0.238C319.096,250.466,376,310.833,376,383.67V486
		C376,491.522,371.522,496,366,496z M36,476h320v-92.33c0-62.256-48.63-113.853-110.711-117.467
		c-2.249-0.135-4.584-0.203-6.959-0.203h-84.66c-2.375,0-4.71,0.068-6.939,0.202C84.63,269.817,36,321.414,36,383.67V476z" id="id_105"></path>
<path style="fill: rgb(23, 30, 31);" d="M96,496c-5.523,0-10-4.478-10-10v-57.5c0-5.522,4.477-10,10-10s10,4.478,10,10V486
		C106,491.522,101.523,496,96,496z" id="id_106"></path>
<path style="fill: rgb(22, 34, 36);" d="M296,496c-5.522,0-10-4.478-10-10v-57.5c0-5.522,4.478-10,10-10s10,4.478,10,10V486
		C306,491.522,301.522,496,296,496z" id="id_107"></path>
<path style="fill: rgb(6, 12, 13);" d="M196,352.25c-3.566,0-6.863-1.899-8.651-4.984l-49.962-86.186
		c-2.806-4.757-1.224-10.888,3.533-13.693c4.756-2.806,10.887-1.224,13.693,3.533l0.13,0.22L196,322.311l41.387-71.391
		c2.805-4.758,8.938-6.34,13.693-3.533c4.757,2.806,6.339,8.937,3.533,13.693l-0.13,0.221l-49.832,85.965
		C202.863,350.351,199.566,352.25,196,352.25z" id="id_108"></path>
<path style="fill: rgb(19, 29, 31);" d="M196,236c-60.654,0-110-49.346-110-110S135.346,16,196,16s110,49.346,110,110S256.654,236,196,236z
		 M196,36c-49.626,0-90,40.374-90,90s40.374,90,90,90s90-40.374,90-90S245.626,36,196,36z" id="id_109"></path>
<path style="fill: rgb(20, 27, 28);" d="M462.74,277.8c-2.063,0-4.124-0.636-5.877-1.909l-31.763-23.07l-31.753,23.069
		c-3.504,2.547-8.25,2.546-11.756,0.001c-3.505-2.547-4.972-7.06-3.633-11.18l12.126-37.332l-31.754-23.08
		c-3.505-2.547-4.971-7.061-3.632-11.18c1.34-4.12,5.179-6.909,9.511-6.909h39.254l12.125-37.329c1.338-4.12,5.178-6.91,9.51-6.911
		s8.172,2.789,9.511,6.909l12.136,37.331H486c4.332,0,8.172,2.79,9.511,6.91s-0.128,8.634-3.633,11.18l-31.762,23.079l12.134,37.33
		c1.34,4.119-0.126,8.634-3.631,11.181C466.866,277.163,464.803,277.8,462.74,277.8z M425.1,230.46c2.063,0,4.124,0.636,5.877,1.909
		l12.74,9.253l-4.866-14.971c-1.34-4.12,0.127-8.634,3.632-11.181l12.744-9.26H439.48c-4.332,0-8.171-2.789-9.51-6.909
		l-4.867-14.972l-4.862,14.97c-1.338,4.121-5.178,6.911-9.511,6.911h-15.753l12.741,9.261c3.504,2.547,4.97,7.059,3.632,11.179
		l-4.863,14.973l12.734-9.252C420.974,231.097,423.037,230.46,425.1,230.46z" id="id_110"></path>
</g>
<g id="Layer_1">
</g>
</svg>