<?xml version="1.0" encoding="UTF-8" standalone="no"?>
<!-- Created with Inkscape (http://www.inkscape.org/) -->

<svg
   width="432.69901"
   height="432.69901"
   viewBox="0 0 114.48494 114.48494"
   version="1.1"
   id="svg2533"
   xml:space="preserve"
   inkscape:version="1.2 (dc2aedaf03, 2022-05-15)"
   sodipodi:docname="COPY2.svg"
   xmlns:inkscape="http://www.inkscape.org/namespaces/inkscape"
   xmlns:sodipodi="http://sodipodi.sourceforge.net/DTD/sodipodi-0.dtd"
   xmlns="http://www.w3.org/2000/svg"
   xmlns:svg="http://www.w3.org/2000/svg"><sodipodi:namedview
     id="namedview2535"
     pagecolor="#ffffff"
     bordercolor="#000000"
     borderopacity="0.25"
     inkscape:showpageshadow="2"
     inkscape:pageopacity="0.0"
     inkscape:pagecheckerboard="0"
     inkscape:deskcolor="#d1d1d1"
     inkscape:document-units="px"
     showgrid="false"
     inkscape:zoom="0.46769781"
     inkscape:cx="620.05849"
     inkscape:cy="498.18493"
     inkscape:window-width="1366"
     inkscape:window-height="705"
     inkscape:window-x="-8"
     inkscape:window-y="-8"
     inkscape:window-maximized="1"
     inkscape:current-layer="layer1" /><defs
     id="defs2530" /><g
     inkscape:label="Capa 1"
     inkscape:groupmode="layer"
     id="layer1"><path
       style="fill:#ff4b50;fill-opacity:1;stroke-width:0.48866"
       d="m 124.79415,183.25747 0.14609,-3.34552 5.86395,-2.50025 c 19.3312,-8.24244 31.38543,-19.97408 32.34865,-31.48301 l 0.30396,-3.63185 -1.58895,1.13145 c -3.35416,2.38837 -7.84468,1.66277 -9.82671,-1.58788 -1.11869,-1.83473 -1.22313,-4.94853 -0.22454,-6.69535 0.3841,-0.67192 0.70616,-1.38658 0.71567,-1.58816 0.009,-0.20157 -3.77591,-0.37187 -8.41209,-0.37845 -4.63616,-0.007 -9.41893,-0.23773 -10.62836,-0.51369 -3.00842,-0.68648 -5.671,-2.63742 -7.23865,-5.30399 l -1.31293,-2.23328 -0.14129,-21.6219 c -0.0951,-14.539615 0.0336,-22.271674 0.39282,-23.605584 0.66778,-2.480027 3.5325,-5.710674 6.10115,-6.880523 1.7934,-0.816777 3.69931,-0.891096 23.10492,-0.90094 18.03262,-0.0092 21.41808,0.10121 22.96706,0.748182 2.30455,0.962663 4.30263,2.854857 5.64866,5.349345 1.0266,1.902517 1.05864,2.514139 1.20152,22.93443 0.2121,30.31329 -0.96905,38.89747 -7.20033,52.32944 -3.86449,8.33017 -10.35796,16.18455 -17.68021,21.38563 -7.89754,5.60972 -21.72033,10.76985 -30.6311,11.43479 l -4.05549,0.30264 z"
       id="path4225"
       sodipodi:nodetypes="ssscsssccssccssccsssssccs"
       transform="matrix(0.65410307,0,0,0.65410307,-35.173082,-25.859168)" /></g><g
     inkscape:groupmode="layer"
     id="layer2"
     inkscape:label="Capa 2"><path
       d="m 104.93755,128.22608 c -2.56885,-1.26612 -3.77157,-3.37195 -3.77157,-6.60355 0,-4.64056 2.87056,-7.50227 7.48943,-7.46635 4.61705,0.0358 7.41637,2.81751 7.41289,7.36602 -0.004,5.79947 -5.83766,9.31275 -11.13075,6.70388 z m 8.87793,-4.82105 c 0.98603,-0.98603 0.48033,-2.18483 -0.92166,-2.18483 -1.40197,0 -1.90767,1.1988 -0.92164,2.18483 0.41092,0.41092 0.82566,0.74713 0.92164,0.74713 0.096,0 0.51075,-0.33621 0.92166,-0.74713 z m -1.26371,-3.25988 c 1.28178,-1.28179 0.35904,-3.81156 -1.39025,-3.81156 -0.44212,0 -1.20267,0.44069 -1.69011,0.97931 -1.79953,1.98845 1.18239,4.7302 3.08036,2.83225 z"
       style="fill:#ff4b50;fill-opacity:1;stroke-width:0.48866"
       id="path12554"
       transform="matrix(0.65410307,0,0,0.65410307,-35.173082,-25.859168)" /></g></svg>
