<?xml version="1.0" encoding="UTF-8" standalone="no"?>
<!-- Created with Inkscape (http://www.inkscape.org/) -->

<svg
   width="432.69901"
   height="432.69901"
   viewBox="0 0 114.48494 114.48494"
   version="1.1"
   id="svg2533"
   xml:space="preserve"
   inkscape:version="1.2 (dc2aedaf03, 2022-05-15)"
   sodipodi:docname="logo2.svg"
   xmlns:inkscape="http://www.inkscape.org/namespaces/inkscape"
   xmlns:sodipodi="http://sodipodi.sourceforge.net/DTD/sodipodi-0.dtd"
   xmlns="http://www.w3.org/2000/svg"
   xmlns:svg="http://www.w3.org/2000/svg"><sodipodi:namedview
     id="namedview2535"
     pagecolor="#ffffff"
     bordercolor="#000000"
     borderopacity="0.25"
     inkscape:showpageshadow="2"
     inkscape:pageopacity="0.0"
     inkscape:pagecheckerboard="0"
     inkscape:deskcolor="#d1d1d1"
     inkscape:document-units="px"
     showgrid="false"
     inkscape:zoom="0.66142459"
     inkscape:cx="27.969931"
     inkscape:cy="300.86574"
     inkscape:window-width="1366"
     inkscape:window-height="705"
     inkscape:window-x="-8"
     inkscape:window-y="-8"
     inkscape:window-maximized="1"
     inkscape:current-layer="g3042" /><defs
     id="defs2530"><rect
       x="36.348257"
       y="162.49809"
       width="324.99618"
       height="230.91834"
       id="rect302" /><rect
       x="36.348255"
       y="162.49809"
       width="324.99619"
       height="230.91833"
       id="rect302-4" /><rect
       x="36.348257"
       y="162.49809"
       width="324.99618"
       height="230.91834"
       id="rect3012" /><filter
       inkscape:collect="always"
       style="color-interpolation-filters:sRGB"
       id="filter3018"
       x="-0.1374939"
       y="-0.13709706"
       width="1.2749878"
       height="1.2741276"><feGaussianBlur
         inkscape:collect="always"
         stdDeviation="0.49184423"
         id="feGaussianBlur3020" /></filter><filter
       inkscape:collect="always"
       style="color-interpolation-filters:sRGB"
       id="filter3022"
       x="-0.034582249"
       y="-0.01789839"
       width="1.0689643"
       height="1.0359686"><feGaussianBlur
         inkscape:collect="always"
         stdDeviation="0.49184423"
         id="feGaussianBlur3024" /></filter><filter
       inkscape:collect="always"
       style="color-interpolation-filters:sRGB"
       id="filter3026"
       x="-0.017826375"
       y="-0.075198277"
       width="1.0356527"
       height="1.1503966"><feGaussianBlur
         inkscape:collect="always"
         stdDeviation="1.8589389"
         id="feGaussianBlur3028" /></filter></defs><g
     inkscape:label="Capa 1"
     inkscape:groupmode="layer"
     id="layer1"
     style="display:inline" /><g
     inkscape:groupmode="layer"
     id="layer2"
     inkscape:label="Capa 2"><g
       id="g3042"
       transform="translate(-0.47158991,-3.4422475)"
       style="display:inline"><path
         d="m 33.466892,50.605567 c -1.680293,-0.828173 -2.466996,-2.205603 -2.466996,-4.319402 0,-3.035405 1.877642,-4.907258 4.898859,-4.883763 3.020027,0.02342 4.851071,1.842942 4.848794,4.818136 -0.0026,3.793452 -3.818431,6.091499 -7.280657,4.385029 z m 5.807081,-3.153464 c 0.644965,-0.644965 0.314185,-1.429104 -0.602861,-1.429104 -0.917033,0 -1.247813,0.784139 -0.602847,1.429104 0.268784,0.268784 0.540066,0.4887 0.602847,0.4887 0.06279,0 0.334083,-0.219916 0.602861,-0.4887 z m -0.826597,-2.132297 c 0.838417,-0.838423 0.234849,-2.493153 -0.909367,-2.493153 -0.289192,0 -0.78667,0.288256 -1.105506,0.640569 -1.177078,1.300652 0.773405,3.094039 2.014873,1.852584 z"
         style="display:inline;fill:#ff4b50;fill-opacity:1;stroke:none;stroke-width:0.319634;stroke-opacity:1"
         id="path12554" /><path
         style="display:inline;fill:#ff4b50;fill-opacity:1;stroke:none;stroke-width:0.319634;stroke-opacity:1"
         d="m 46.455155,86.601768 0.09556,-2.188315 3.835627,-1.635421 C 63.030938,77.386627 70.915646,69.712925 71.545692,62.184898 l 0.198821,-2.375604 -1.039337,0.740085 c -2.193967,1.56224 -5.13123,1.087623 -6.427682,-1.038637 -0.731738,-1.200103 -0.800053,-3.236849 -0.146872,-4.379449 0.251241,-0.439505 0.461902,-0.906966 0.468122,-1.03882 0.0059,-0.131848 -2.469834,-0.243242 -5.502374,-0.247546 -3.032526,-0.0046 -6.160951,-0.1555 -6.952043,-0.336006 -1.967816,-0.449029 -3.709418,-1.725144 -4.734823,-3.469356 L 46.550713,48.57877 46.458293,34.435819 c -0.0622,-9.510407 0.02198,-14.567971 0.256945,-15.440485 0.436797,-1.622194 2.310619,-3.73537 3.990781,-4.500572 1.173068,-0.534256 2.41973,-0.582868 15.112999,-0.589307 11.795192,-0.006 14.009632,0.0662 15.022825,0.489388 1.507413,0.629681 2.814363,1.867371 3.694805,3.499023 0.671503,1.244442 0.69246,1.644506 0.785918,15.001481 0.138736,19.828016 -0.633858,25.442954 -4.709758,34.228847 -2.527774,5.44879 -6.775173,10.586364 -11.564679,13.988407 -5.165805,3.669335 -14.207335,7.044591 -20.035897,7.479531 l -2.652708,0.197958 z"
         id="path4225"
         sodipodi:nodetypes="ssscsssccssccssccsssssccs" /><g
         aria-label="My Pets"
         transform="matrix(0.26458332,0,0,0.26458332,10.748571,45.203087)"
         id="text300"
         style="white-space:pre;shape-inside:url(#rect302);display:inline;fill:#ff4b50;fill-rule:evenodd"><path
           d="m 73.339656,198.35834 q 1.216,-1.6 2.624,-3.776 1.408,-2.24 2.816,-4.608 1.472,-2.432 2.944,-4.864 1.536,-2.496 3.008,-4.608 1.472,-2.176 2.88,-3.776 1.472,-1.664 2.752,-2.496 1.216,-0.768 2.56,-1.152 1.344,-0.448 2.624,-0.448 1.28,0 2.368,0.512 1.152,0.512 1.92,1.664 1.152004,1.856 1.856004,5.248 0.704,3.392 0.96,7.616 0.256,4.16 0.128,8.832 -0.128,4.608 -0.64,9.024 -0.512,4.352 -1.408,8.064 -0.832004,3.712 -1.984004,6.016 -1.216,2.368 -2.752,3.648 -1.536,1.216 -3.136,1.472 -1.6,0.32 -3.072,-0.32 -1.408,-0.576 -2.368,-1.856 -0.896,-1.28 -1.216,-3.2 -0.256,-1.92 0.512,-4.288 1.856,-5.76 2.816,-10.368 0.96,-4.672 1.216,-7.68 0.704,-8.128 -1.088,-9.024 -1.728,-0.96 -5.568,5.504 -0.768,1.28 -1.6,2.816 -0.768,1.472 -1.6,3.008 -0.768,1.536 -1.536,3.072 -0.768,1.472 -1.408,2.688 -0.512,0.96 -1.088,1.856 -0.576,0.896 -1.536,1.6 -1.856,1.28 -3.904,1.152 -1.984,-0.192 -3.456,-1.92 -0.704,-0.704 -1.216,-1.6 -0.512,-0.96 -0.896,-1.92 -0.768,-2.048 -1.536,-4.096 -0.704,-2.048 -1.408,-4.096 -1.088,-3.2 -1.92,-4.928 -0.832,-1.792 -1.6,-2.176 -0.704,-0.448 -1.408,0.448 -0.704,0.832 -1.6,2.752 -1.472,3.264 -2.24,6.72 -0.768,3.392 -1.28,6.848 -0.448,3.456 -0.832,6.912 -0.384,3.392 -1.024,6.656 -0.512,2.304 -1.664,3.648 -1.088,1.344 -2.496,1.856 -1.344,0.512 -2.816,0.256 -1.408,-0.256 -2.496,-1.216 -1.088,-0.896 -1.6,-2.56 -0.512,-1.664 -0.704,-3.584 -1.088,-9.472 -0.832,-19.2 0.256,-9.792 0.896,-19.264 0.064,-0.576 0.128,-1.216 0.128,-0.64 0.256,-1.216 0.768,-2.24 2.88,-2.432 2.24,-0.256 3.456,1.92 0.704,1.408 1.152,3.264 0.512,1.856 0.832,3.968 0.384,2.048 0.512,4.288 0.192,2.24 0.32,4.416 0.832,-2.56 1.536,-5.696 0.768,-3.2 1.728,-6.208 1.024,-3.008 2.432,-5.504 1.472,-2.496 3.712,-3.776 2.24,-1.28 4.608,-0.256 2.368,0.96 4.224,5.12 1.216,2.624 1.984,5.568 0.768,2.944 1.344,5.888 0.64,2.944 1.28,5.824 0.64,2.816 1.664,5.184 z"
           style="font-size:64px;font-family:'Waffle Story';-inkscape-font-specification:'Waffle Story, Normal'"
           id="path3190" /><path
           d="m 134.84369,187.86234 q 0.384,-1.6 1.28,-2.368 0.96,-0.832 1.984,-0.896 1.088,-0.064 2.112,0.704 1.088,0.704 1.664,2.112 2.816,6.336 3.712,12.864 0.896,6.528 0.384,12.544 -0.32,3.456 -1.216,6.912 -0.832,3.456 -2.432,6.464 -1.6,3.008 -4.032,5.248 -2.432,2.304 -5.76,3.264 -1.792,0.512 -3.968,0.64 -2.176,0.192 -4.352,-0.128 -2.176,-0.256 -4.16,-1.088 -1.92,-0.768 -3.264,-2.176 -0.704,-0.768 -1.216,-1.792 -0.512,-0.96 -0.704,-1.984 -0.128,-1.024 0.128,-2.048 0.32,-0.96 1.152,-1.728 1.728,-1.664 4.224,-0.768 3.2,1.664 5.696,1.344 2.56,-0.32 4.416,-1.92 1.856,-1.6 3.008,-4.096 1.216,-2.56 1.728,-5.312 0.512,-2.752 0.384,-5.44 -0.128,-2.688 -0.832,-4.608 -0.896,1.984 -2.24,4.416 -1.28,2.432 -3.072,4.672 -1.728,2.176 -3.968,3.776 -2.24,1.6 -4.992,1.984 -3.328,0.448 -5.888,-0.704 -2.56,-1.152 -4.544,-3.84 -1.92,-2.56 -2.688,-6.144 -0.704,-3.648 -0.512,-7.36 0.192,-3.776 1.28,-7.232 1.152,-3.456 3.008,-5.76 1.024,-1.28 2.304,-1.664 1.344,-0.384 2.624,0.128 1.472,0.512 2.176,1.664 0.704,1.152 0.64,2.624 -0.128,4.736 -0.384,9.408 -0.384,5.632 0.448,7.68 0.832,1.984 2.368,1.536 1.536,-0.512 3.52,-2.88 1.984,-2.432 3.904,-5.568 1.984,-3.2 3.584,-6.592 1.664,-3.392 2.496,-5.888 z"
           style="font-size:64px;font-family:'Waffle Story';-inkscape-font-specification:'Waffle Story, Normal'"
           id="path3192" /><path
           d="m 185.53177,206.99834 q -0.128,3.328 0,5.44 0.128,2.112 0.32,3.712 0.192,1.536 0.384,2.944 0.192,1.344 0.192,3.136 0,1.984 -1.152,3.328 -1.088,1.344 -2.688,1.664 -1.536,0.384 -3.264,-0.448 -1.664,-0.768 -2.88,-3.136 -1.536,-3.136 -2.432,-7.104 -0.832,-4.032 -1.088,-8.384 -0.192,-4.416 0.064,-8.96 0.32,-4.544 1.024,-8.832 0.768,-4.288 1.856,-8.064 1.088,-3.84 2.432,-6.784 0.512,-1.088 0.96,-1.984 0.512,-0.896 1.216,-1.728 1.152,-1.472 2.816,-1.984 1.664,-0.576 3.136,-0.256 1.472,0.256 2.368,1.408 0.896,1.088 0.512,3.008 -0.128,1.216 -0.384,2.432 -0.192,1.152 -0.384,2.304 -0.064,0.32 -0.128,0.704 -0.064,0.32 -0.192,0.896 3.008,-3.456 6.208,-5.12 3.264,-1.664 6.336,-1.792 3.072,-0.128 5.76,1.216 2.688,1.28 4.544,3.776 1.92,2.432 2.752,5.888 0.896,3.456 0.384,7.616 -0.576,4.416 -2.624,8.448 -2.048,3.968 -5.056,6.912 -2.24,2.176 -5.12,3.456 -2.816,1.28 -5.76,1.408 -2.944,0.064 -5.632,-1.152 -2.624,-1.216 -4.48,-3.968 z m 6.912,-23.808 q -1.856,1.856 -3.2,4.096 -1.28,2.24 -2.176,4.352 -0.96,2.88 0.192,5.184 1.152,2.304 3.264,3.392 2.56,1.28 4.736,0.512 2.24,-0.768 3.904,-2.56 1.664,-1.856 2.752,-4.224 1.152,-2.432 1.6,-4.416 0.768,-3.52 0.128,-5.888 -0.64,-2.432 -2.304,-3.392 -1.6,-0.96 -3.968,-0.256 -2.368,0.64 -4.928,3.2 z"
           style="font-size:64px;font-family:'Waffle Story';-inkscape-font-specification:'Waffle Story, Normal'"
           id="path3194" /><path
           d="m 229.75576,206.74234 q 0.512,2.432 1.984,3.648 1.536,1.216 3.904,0.896 2.24,-0.32 4.224,-1.216 2.048,-0.96 3.968,-1.92 1.472,-0.704 3.008,-0.512 1.6,0.128 2.752,1.152 1.088,0.96 1.408,2.496 0.384,1.536 -0.128,3.072 -0.768,2.112 -2.432,3.584 -1.664,1.472 -3.712,2.432 -2.048,0.896 -4.224,1.408 -2.176,0.448 -3.968,0.576 -4.032,0.384 -7.296,-0.832 -3.264,-1.28 -5.568,-3.52 -2.304,-2.304 -3.648,-5.376 -1.28,-3.072 -1.472,-6.4 -0.192,-3.392 0.704,-6.72 0.96,-3.392 3.2,-6.208 2.624,-3.328 6.272,-5.376 3.648,-2.112 7.424,-2.496 3.072,-0.256 5.376,0.512 2.368,0.768 3.904,2.304 1.536,1.472 2.176,3.456 0.64,1.92 0.256,4.032 -0.32,2.048 -1.664,4.096 -1.344,2.048 -3.84,3.584 -2.816,1.728 -6.08,2.432 -3.2,0.64 -6.528,0.896 z m -0.512,-5.824 q 3.072,0.32 5.504,0.064 2.496,-0.256 4.352,-1.344 1.792,-0.96 2.624,-2.24 0.896,-1.344 0.704,-2.432 -0.192,-1.088 -1.408,-1.728 -1.152,-0.704 -3.328,-0.448 -1.344,0.128 -2.688,0.896 -1.344,0.768 -2.56,1.92 -1.152,1.088 -2.048,2.496 -0.832,1.408 -1.152,2.816 z"
           style="font-size:64px;font-family:'Waffle Story';-inkscape-font-specification:'Waffle Story, Normal'"
           id="path3196" /><path
           d="m 274.42781,194.00634 q 0.768,0 1.792,0 1.088,-0.064 2.176,0 1.088,0.064 2.048,0.256 1.024,0.128 1.6,0.448 1.152,0.576 1.792,1.536 0.64,0.896 0.64,1.92 0.064,1.024 -0.448,2.048 -0.512,0.96 -1.664,1.6 -0.704,0.448 -1.728,0.704 -1.024,0.192 -2.112,0.384 -1.088,0.128 -2.176,0.192 -1.024,0.064 -1.664,0.128 -0.192,4.544 0.896,7.424 1.088,2.816 2.688,4.608 0.96,1.088 1.792,2.048 0.832,0.96 1.152,2.112 0.384,1.408 -0.192,2.752 -0.512,1.28 -1.6,1.984 -2.048,1.28 -4.288,0.576 -2.24,-0.64 -3.968,-2.048 -1.792,-1.472 -3.072,-3.712 -1.28,-2.304 -2.176,-4.864 -0.832,-2.56 -1.216,-5.12 -0.384,-2.56 -0.32,-4.672 h -1.92 q -0.832,0 -1.664,0.064 -0.832,0 -1.664,-0.064 -1.664,-0.128 -2.688,-1.088 -1.024,-1.024 -1.152,-2.496 -0.128,-1.472 0.64,-2.624 0.768,-1.152 2.24,-1.664 0.896,-0.256 1.728,-0.384 0.896,-0.128 1.792,-0.256 0.576,-0.128 1.152,-0.256 0.576,-0.128 1.152,-0.256 0.192,-1.728 0.448,-4.224 0.256,-2.56 0.64,-5.248 0.384,-2.688 0.896,-5.248 0.576,-2.624 1.408,-4.48 0.96,-2.24 2.624,-3.136 1.664,-0.896 3.2,-0.576 1.536,0.256 2.56,1.664 1.088,1.344 0.896,3.648 -0.128,1.472 -0.512,3.392 -0.32,1.856 -0.704,3.968 -0.384,2.112 -0.704,4.416 -0.32,2.24 -0.32,4.544 z"
           style="font-size:64px;font-family:'Waffle Story';-inkscape-font-specification:'Waffle Story, Normal'"
           id="path3198" /><path
           d="m 302.58784,226.19834 q -3.392,0.192 -6.72,-0.832 -3.264,-1.024 -5.696,-3.456 -2.112,-2.112 -2.24,-4.544 -0.064,-2.496 1.024,-4.288 1.088,-1.856 2.944,-2.432 1.92,-0.576 3.904,1.152 1.92,1.728 3.84,2.368 1.984,0.64 3.456,0.448 1.536,-0.256 2.432,-1.152 0.96,-0.896 0.896,-2.24 -0.064,-1.408 -1.344,-3.136 -1.216,-1.728 -3.968,-3.52 -1.024,-0.64 -2.176,-1.408 -1.152,-0.768 -2.304,-1.6 -1.088,-0.896 -2.112,-1.792 -0.96,-0.896 -1.728,-1.792 -2.304,-2.816 -2.688,-6.08 -0.384,-3.264 0.832,-6.08 1.216,-2.88 3.84,-4.864 2.624,-2.048 6.336,-2.304 3.456,-0.256 6.336,0.832 2.88,1.024 5.568,2.304 2.304,1.216 3.2,3.52 0.896,2.24 0,4.416 -0.512,1.088 -1.344,1.92 -0.832,0.768 -1.92,1.216 -1.024,0.384 -2.24,0.448 -1.216,0 -2.432,-0.384 -0.896,-0.32 -1.728,-1.024 -0.832,-0.768 -1.664,-1.472 -1.28,-0.96 -2.304,-1.152 -0.96,-0.192 -1.536,0.192 -0.576,0.32 -0.64,1.152 -0.064,0.768 0.64,1.728 1.216,1.856 2.688,3.264 1.472,1.408 2.944,2.624 1.536,1.216 3.008,2.432 1.472,1.216 2.624,2.624 3.328,4.096 3.968,8.128 0.64,3.968 -0.896,7.168 -1.472,3.2 -4.864,5.248 -3.328,2.112 -7.936,2.368 z"
           style="font-size:64px;font-family:'Waffle Story';-inkscape-font-specification:'Waffle Story, Normal';display:inline"
           id="path3200" /></g><path
         d="m 33.466892,50.605567 c -1.680293,-0.828173 -2.466996,-2.205603 -2.466996,-4.319402 0,-3.035405 1.877642,-4.907258 4.898859,-4.883763 3.020027,0.02342 4.851071,1.842942 4.848794,4.818136 -0.0026,3.793452 -3.818431,6.091499 -7.280657,4.385029 z m 5.807081,-3.153464 c 0.644965,-0.644965 0.314185,-1.429104 -0.602861,-1.429104 -0.917033,0 -1.247813,0.784139 -0.602847,1.429104 0.268784,0.268784 0.540066,0.4887 0.602847,0.4887 0.06279,0 0.334083,-0.219916 0.602861,-0.4887 z m -0.826597,-2.132297 c 0.838417,-0.838423 0.234849,-2.493153 -0.909367,-2.493153 -0.289192,0 -0.78667,0.288256 -1.105506,0.640569 -1.177078,1.300652 0.773405,3.094039 2.014873,1.852584 z"
         style="opacity:0.42328;fill:none;fill-opacity:1;stroke:#000000;stroke-width:0.319634;stroke-opacity:0.99;filter:url(#filter3018)"
         id="path3004" /><path
         style="opacity:0.42328;fill:none;fill-opacity:1;stroke:#000000;stroke-width:0.319634;stroke-opacity:1;filter:url(#filter3022)"
         d="m 46.455155,86.601768 0.09556,-2.188315 3.835627,-1.635421 C 63.030938,77.386627 70.915646,69.712925 71.545692,62.184898 l 0.198821,-2.375604 -1.039337,0.740085 c -2.193967,1.56224 -5.13123,1.087623 -6.427682,-1.038637 -0.731738,-1.200103 -0.800053,-3.236849 -0.146872,-4.379449 0.251241,-0.439505 0.461902,-0.906966 0.468122,-1.03882 0.0059,-0.131848 -2.469834,-0.243242 -5.502374,-0.247546 -3.032526,-0.0046 -6.160951,-0.1555 -6.952043,-0.336006 -1.967816,-0.449029 -3.709418,-1.725144 -4.734823,-3.469356 L 46.550713,48.57877 46.458293,34.435819 c -0.0622,-9.510407 0.02198,-14.567971 0.256945,-15.440485 0.436797,-1.622194 2.310619,-3.73537 3.990781,-4.500572 1.173068,-0.534256 2.41973,-0.582868 15.112999,-0.589307 11.795192,-0.006 14.009632,0.0662 15.022825,0.489388 1.507413,0.629681 2.814363,1.867371 3.694805,3.499023 0.671503,1.244442 0.69246,1.644506 0.785918,15.001481 0.138736,19.828016 -0.633858,25.442954 -4.709758,34.228847 -2.527774,5.44879 -6.775173,10.586364 -11.564679,13.988407 -5.165805,3.669335 -14.207335,7.044591 -20.035897,7.479531 l -2.652708,0.197958 z"
         id="path3006"
         sodipodi:nodetypes="ssscsssccssccssccsssssccs" /><g
         aria-label="My Pets"
         transform="matrix(0.26458332,0,0,0.26458332,10.748571,45.203089)"
         id="text3010"
         style="white-space:pre;shape-inside:url(#rect3012);display:inline;opacity:0.42328;fill:none;fill-rule:evenodd;stroke:#000000;filter:url(#filter3026)"><path
           d="m 73.339656,198.35834 q 1.216,-1.6 2.624,-3.776 1.408,-2.24 2.816,-4.608 1.472,-2.432 2.944,-4.864 1.536,-2.496 3.008,-4.608 1.472,-2.176 2.88,-3.776 1.472,-1.664 2.752,-2.496 1.216,-0.768 2.56,-1.152 1.344,-0.448 2.624,-0.448 1.28,0 2.368,0.512 1.152,0.512 1.92,1.664 1.152004,1.856 1.856004,5.248 0.704,3.392 0.96,7.616 0.256,4.16 0.128,8.832 -0.128,4.608 -0.64,9.024 -0.512,4.352 -1.408,8.064 -0.832004,3.712 -1.984004,6.016 -1.216,2.368 -2.752,3.648 -1.536,1.216 -3.136,1.472 -1.6,0.32 -3.072,-0.32 -1.408,-0.576 -2.368,-1.856 -0.896,-1.28 -1.216,-3.2 -0.256,-1.92 0.512,-4.288 1.856,-5.76 2.816,-10.368 0.96,-4.672 1.216,-7.68 0.704,-8.128 -1.088,-9.024 -1.728,-0.96 -5.568,5.504 -0.768,1.28 -1.6,2.816 -0.768,1.472 -1.6,3.008 -0.768,1.536 -1.536,3.072 -0.768,1.472 -1.408,2.688 -0.512,0.96 -1.088,1.856 -0.576,0.896 -1.536,1.6 -1.856,1.28 -3.904,1.152 -1.984,-0.192 -3.456,-1.92 -0.704,-0.704 -1.216,-1.6 -0.512,-0.96 -0.896,-1.92 -0.768,-2.048 -1.536,-4.096 -0.704,-2.048 -1.408,-4.096 -1.088,-3.2 -1.92,-4.928 -0.832,-1.792 -1.6,-2.176 -0.704,-0.448 -1.408,0.448 -0.704,0.832 -1.6,2.752 -1.472,3.264 -2.24,6.72 -0.768,3.392 -1.28,6.848 -0.448,3.456 -0.832,6.912 -0.384,3.392 -1.024,6.656 -0.512,2.304 -1.664,3.648 -1.088,1.344 -2.496,1.856 -1.344,0.512 -2.816,0.256 -1.408,-0.256 -2.496,-1.216 -1.088,-0.896 -1.6,-2.56 -0.512,-1.664 -0.704,-3.584 -1.088,-9.472 -0.832,-19.2 0.256,-9.792 0.896,-19.264 0.064,-0.576 0.128,-1.216 0.128,-0.64 0.256,-1.216 0.768,-2.24 2.88,-2.432 2.24,-0.256 3.456,1.92 0.704,1.408 1.152,3.264 0.512,1.856 0.832,3.968 0.384,2.048 0.512,4.288 0.192,2.24 0.32,4.416 0.832,-2.56 1.536,-5.696 0.768,-3.2 1.728,-6.208 1.024,-3.008 2.432,-5.504 1.472,-2.496 3.712,-3.776 2.24,-1.28 4.608,-0.256 2.368,0.96 4.224,5.12 1.216,2.624 1.984,5.568 0.768,2.944 1.344,5.888 0.64,2.944 1.28,5.824 0.64,2.816 1.664,5.184 z"
           style="font-size:64px;font-family:'Waffle Story';-inkscape-font-specification:'Waffle Story, Normal'"
           id="path3177" /><path
           d="m 134.84369,187.86234 q 0.384,-1.6 1.28,-2.368 0.96,-0.832 1.984,-0.896 1.088,-0.064 2.112,0.704 1.088,0.704 1.664,2.112 2.816,6.336 3.712,12.864 0.896,6.528 0.384,12.544 -0.32,3.456 -1.216,6.912 -0.832,3.456 -2.432,6.464 -1.6,3.008 -4.032,5.248 -2.432,2.304 -5.76,3.264 -1.792,0.512 -3.968,0.64 -2.176,0.192 -4.352,-0.128 -2.176,-0.256 -4.16,-1.088 -1.92,-0.768 -3.264,-2.176 -0.704,-0.768 -1.216,-1.792 -0.512,-0.96 -0.704,-1.984 -0.128,-1.024 0.128,-2.048 0.32,-0.96 1.152,-1.728 1.728,-1.664 4.224,-0.768 3.2,1.664 5.696,1.344 2.56,-0.32 4.416,-1.92 1.856,-1.6 3.008,-4.096 1.216,-2.56 1.728,-5.312 0.512,-2.752 0.384,-5.44 -0.128,-2.688 -0.832,-4.608 -0.896,1.984 -2.24,4.416 -1.28,2.432 -3.072,4.672 -1.728,2.176 -3.968,3.776 -2.24,1.6 -4.992,1.984 -3.328,0.448 -5.888,-0.704 -2.56,-1.152 -4.544,-3.84 -1.92,-2.56 -2.688,-6.144 -0.704,-3.648 -0.512,-7.36 0.192,-3.776 1.28,-7.232 1.152,-3.456 3.008,-5.76 1.024,-1.28 2.304,-1.664 1.344,-0.384 2.624,0.128 1.472,0.512 2.176,1.664 0.704,1.152 0.64,2.624 -0.128,4.736 -0.384,9.408 -0.384,5.632 0.448,7.68 0.832,1.984 2.368,1.536 1.536,-0.512 3.52,-2.88 1.984,-2.432 3.904,-5.568 1.984,-3.2 3.584,-6.592 1.664,-3.392 2.496,-5.888 z"
           style="font-size:64px;font-family:'Waffle Story';-inkscape-font-specification:'Waffle Story, Normal'"
           id="path3179" /><path
           d="m 185.53177,206.99834 q -0.128,3.328 0,5.44 0.128,2.112 0.32,3.712 0.192,1.536 0.384,2.944 0.192,1.344 0.192,3.136 0,1.984 -1.152,3.328 -1.088,1.344 -2.688,1.664 -1.536,0.384 -3.264,-0.448 -1.664,-0.768 -2.88,-3.136 -1.536,-3.136 -2.432,-7.104 -0.832,-4.032 -1.088,-8.384 -0.192,-4.416 0.064,-8.96 0.32,-4.544 1.024,-8.832 0.768,-4.288 1.856,-8.064 1.088,-3.84 2.432,-6.784 0.512,-1.088 0.96,-1.984 0.512,-0.896 1.216,-1.728 1.152,-1.472 2.816,-1.984 1.664,-0.576 3.136,-0.256 1.472,0.256 2.368,1.408 0.896,1.088 0.512,3.008 -0.128,1.216 -0.384,2.432 -0.192,1.152 -0.384,2.304 -0.064,0.32 -0.128,0.704 -0.064,0.32 -0.192,0.896 3.008,-3.456 6.208,-5.12 3.264,-1.664 6.336,-1.792 3.072,-0.128 5.76,1.216 2.688,1.28 4.544,3.776 1.92,2.432 2.752,5.888 0.896,3.456 0.384,7.616 -0.576,4.416 -2.624,8.448 -2.048,3.968 -5.056,6.912 -2.24,2.176 -5.12,3.456 -2.816,1.28 -5.76,1.408 -2.944,0.064 -5.632,-1.152 -2.624,-1.216 -4.48,-3.968 z m 6.912,-23.808 q -1.856,1.856 -3.2,4.096 -1.28,2.24 -2.176,4.352 -0.96,2.88 0.192,5.184 1.152,2.304 3.264,3.392 2.56,1.28 4.736,0.512 2.24,-0.768 3.904,-2.56 1.664,-1.856 2.752,-4.224 1.152,-2.432 1.6,-4.416 0.768,-3.52 0.128,-5.888 -0.64,-2.432 -2.304,-3.392 -1.6,-0.96 -3.968,-0.256 -2.368,0.64 -4.928,3.2 z"
           style="font-size:64px;font-family:'Waffle Story';-inkscape-font-specification:'Waffle Story, Normal'"
           id="path3181" /><path
           d="m 229.75576,206.74234 q 0.512,2.432 1.984,3.648 1.536,1.216 3.904,0.896 2.24,-0.32 4.224,-1.216 2.048,-0.96 3.968,-1.92 1.472,-0.704 3.008,-0.512 1.6,0.128 2.752,1.152 1.088,0.96 1.408,2.496 0.384,1.536 -0.128,3.072 -0.768,2.112 -2.432,3.584 -1.664,1.472 -3.712,2.432 -2.048,0.896 -4.224,1.408 -2.176,0.448 -3.968,0.576 -4.032,0.384 -7.296,-0.832 -3.264,-1.28 -5.568,-3.52 -2.304,-2.304 -3.648,-5.376 -1.28,-3.072 -1.472,-6.4 -0.192,-3.392 0.704,-6.72 0.96,-3.392 3.2,-6.208 2.624,-3.328 6.272,-5.376 3.648,-2.112 7.424,-2.496 3.072,-0.256 5.376,0.512 2.368,0.768 3.904,2.304 1.536,1.472 2.176,3.456 0.64,1.92 0.256,4.032 -0.32,2.048 -1.664,4.096 -1.344,2.048 -3.84,3.584 -2.816,1.728 -6.08,2.432 -3.2,0.64 -6.528,0.896 z m -0.512,-5.824 q 3.072,0.32 5.504,0.064 2.496,-0.256 4.352,-1.344 1.792,-0.96 2.624,-2.24 0.896,-1.344 0.704,-2.432 -0.192,-1.088 -1.408,-1.728 -1.152,-0.704 -3.328,-0.448 -1.344,0.128 -2.688,0.896 -1.344,0.768 -2.56,1.92 -1.152,1.088 -2.048,2.496 -0.832,1.408 -1.152,2.816 z"
           style="font-size:64px;font-family:'Waffle Story';-inkscape-font-specification:'Waffle Story, Normal'"
           id="path3183" /><path
           d="m 274.42781,194.00634 q 0.768,0 1.792,0 1.088,-0.064 2.176,0 1.088,0.064 2.048,0.256 1.024,0.128 1.6,0.448 1.152,0.576 1.792,1.536 0.64,0.896 0.64,1.92 0.064,1.024 -0.448,2.048 -0.512,0.96 -1.664,1.6 -0.704,0.448 -1.728,0.704 -1.024,0.192 -2.112,0.384 -1.088,0.128 -2.176,0.192 -1.024,0.064 -1.664,0.128 -0.192,4.544 0.896,7.424 1.088,2.816 2.688,4.608 0.96,1.088 1.792,2.048 0.832,0.96 1.152,2.112 0.384,1.408 -0.192,2.752 -0.512,1.28 -1.6,1.984 -2.048,1.28 -4.288,0.576 -2.24,-0.64 -3.968,-2.048 -1.792,-1.472 -3.072,-3.712 -1.28,-2.304 -2.176,-4.864 -0.832,-2.56 -1.216,-5.12 -0.384,-2.56 -0.32,-4.672 h -1.92 q -0.832,0 -1.664,0.064 -0.832,0 -1.664,-0.064 -1.664,-0.128 -2.688,-1.088 -1.024,-1.024 -1.152,-2.496 -0.128,-1.472 0.64,-2.624 0.768,-1.152 2.24,-1.664 0.896,-0.256 1.728,-0.384 0.896,-0.128 1.792,-0.256 0.576,-0.128 1.152,-0.256 0.576,-0.128 1.152,-0.256 0.192,-1.728 0.448,-4.224 0.256,-2.56 0.64,-5.248 0.384,-2.688 0.896,-5.248 0.576,-2.624 1.408,-4.48 0.96,-2.24 2.624,-3.136 1.664,-0.896 3.2,-0.576 1.536,0.256 2.56,1.664 1.088,1.344 0.896,3.648 -0.128,1.472 -0.512,3.392 -0.32,1.856 -0.704,3.968 -0.384,2.112 -0.704,4.416 -0.32,2.24 -0.32,4.544 z"
           style="font-size:64px;font-family:'Waffle Story';-inkscape-font-specification:'Waffle Story, Normal'"
           id="path3185" /><path
           d="m 302.58784,226.19834 q -3.392,0.192 -6.72,-0.832 -3.264,-1.024 -5.696,-3.456 -2.112,-2.112 -2.24,-4.544 -0.064,-2.496 1.024,-4.288 1.088,-1.856 2.944,-2.432 1.92,-0.576 3.904,1.152 1.92,1.728 3.84,2.368 1.984,0.64 3.456,0.448 1.536,-0.256 2.432,-1.152 0.96,-0.896 0.896,-2.24 -0.064,-1.408 -1.344,-3.136 -1.216,-1.728 -3.968,-3.52 -1.024,-0.64 -2.176,-1.408 -1.152,-0.768 -2.304,-1.6 -1.088,-0.896 -2.112,-1.792 -0.96,-0.896 -1.728,-1.792 -2.304,-2.816 -2.688,-6.08 -0.384,-3.264 0.832,-6.08 1.216,-2.88 3.84,-4.864 2.624,-2.048 6.336,-2.304 3.456,-0.256 6.336,0.832 2.88,1.024 5.568,2.304 2.304,1.216 3.2,3.52 0.896,2.24 0,4.416 -0.512,1.088 -1.344,1.92 -0.832,0.768 -1.92,1.216 -1.024,0.384 -2.24,0.448 -1.216,0 -2.432,-0.384 -0.896,-0.32 -1.728,-1.024 -0.832,-0.768 -1.664,-1.472 -1.28,-0.96 -2.304,-1.152 -0.96,-0.192 -1.536,0.192 -0.576,0.32 -0.64,1.152 -0.064,0.768 0.64,1.728 1.216,1.856 2.688,3.264 1.472,1.408 2.944,2.624 1.536,1.216 3.008,2.432 1.472,1.216 2.624,2.624 3.328,4.096 3.968,8.128 0.64,3.968 -0.896,7.168 -1.472,3.2 -4.864,5.248 -3.328,2.112 -7.936,2.368 z"
           style="font-size:64px;font-family:'Waffle Story';-inkscape-font-specification:'Waffle Story, Normal'"
           id="path3187" /></g></g></g></svg>
