<?xml version="1.0" encoding="UTF-8" standalone="no"?> <svg width="24" height="24" viewBox="0 0 24 24" fill="none" xmlns="http://www.w3.org/2000/svg">
<path d="M6.43792 20.955C6.29215 20.955 6.14814 20.9231 6.016 20.8615C5.88385 20.8 5.76676 20.7103 5.67292 20.5987C5.57909 20.4872 5.51077 20.3565 5.47277 20.2157C5.43477 20.075 5.42799 19.9277 5.45292 19.784L6.42492 14.156L2.29992 10.172C2.16559 10.0418 2.07051 9.87641 2.02548 9.69479C1.98045 9.51317 1.98729 9.32255 2.04521 9.14462C2.10313 8.96669 2.20981 8.80858 2.35313 8.68826C2.49645 8.56795 2.67064 8.49026 2.85592 8.46403L8.55592 7.63603L11.0999 2.51003C11.1917 2.35275 11.3231 2.22226 11.481 2.13157C11.6389 2.04089 11.8178 1.99316 11.9999 1.99316C12.182 1.99316 12.3609 2.04089 12.5188 2.13157C12.6768 2.22226 12.8081 2.35275 12.8999 2.51003L15.4469 7.63603L21.1469 8.46403C21.3318 8.49103 21.5054 8.56928 21.6481 8.68991C21.7907 8.81053 21.8967 8.96871 21.9541 9.14651C22.0115 9.32432 22.0179 9.51463 21.9726 9.69589C21.9273 9.87714 21.8322 10.0421 21.6979 10.172L17.5779 14.157L18.5499 19.785C18.5812 19.9691 18.5603 20.1583 18.4896 20.3312C18.4189 20.504 18.3013 20.6536 18.1499 20.763C17.9798 20.8888 17.7735 20.9561 17.5619 20.955C17.4005 20.9555 17.2414 20.917 17.0979 20.843L11.9999 18.178L6.89992 20.842C6.75711 20.9159 6.59872 20.9547 6.43792 20.955V20.955ZM11.9999 16.05C12.1611 16.0498 12.3199 16.0886 12.4629 16.163L16.2319 18.133L15.5149 13.976C15.4872 13.8154 15.4991 13.6505 15.5496 13.4955C15.6001 13.3406 15.6878 13.2004 15.8049 13.087L18.8419 10.151L14.6419 9.53903C14.4818 9.51578 14.3298 9.45405 14.1988 9.35913C14.0678 9.2642 13.9618 9.13892 13.8899 8.99403L11.9999 5.20003L10.1139 8.99503C10.042 9.13992 9.936 9.2652 9.80503 9.36013C9.67405 9.45505 9.522 9.51678 9.36192 9.54003L5.16192 10.152L8.19892 13.088C8.31604 13.2014 8.40369 13.3416 8.45423 13.4965C8.50478 13.6515 8.51668 13.8164 8.48892 13.977L7.77192 18.134L11.5409 16.164C11.6827 16.0901 11.84 16.051 11.9999 16.05V16.05Z" fill="black"/>
</svg>
