<svg width="26" height="23" viewBox="0 0 26 23" fill="none" xmlns="http://www.w3.org/2000/svg">
<path d="M20.3946 14.0743C20.0769 14.3686 19.9309 14.7941 20.0032 15.2114L21.0938 20.9789C21.1859 21.4677 20.9699 21.9624 20.5418 22.2449C20.1222 22.538 19.5641 22.5731 19.1065 22.3387L13.6731 19.6308C13.4842 19.5347 13.2744 19.4831 13.0597 19.4772H12.7273C12.612 19.4936 12.4991 19.5288 12.396 19.5827L6.96145 22.3035C6.69279 22.4325 6.38855 22.4782 6.09045 22.4325C5.3642 22.3012 4.87962 21.64 4.99862 20.9425L6.09045 15.1751C6.16283 14.7542 6.01684 14.3264 5.69911 14.0275L1.26924 9.92459C0.898754 9.58112 0.769943 9.06533 0.939238 8.59995C1.10362 8.13574 1.52318 7.79696 2.02984 7.72076L8.12688 6.87557C8.5906 6.82986 8.99789 6.56024 9.20644 6.16168L11.8931 0.898287C11.9569 0.781062 12.0391 0.673216 12.1384 0.58178L12.2488 0.499723C12.3065 0.438766 12.3727 0.38836 12.4463 0.347331L12.5801 0.300441L12.7886 0.218384H13.3051C13.7663 0.264101 14.1724 0.527857 14.3846 0.921732L17.1068 6.16168C17.3031 6.545 17.6847 6.8111 18.1251 6.87557L24.2221 7.72076C24.7374 7.7911 25.1679 8.13105 25.3385 8.59995C25.4992 9.07002 25.3606 9.58581 24.9827 9.92459L20.3946 14.0743Z" fill="#EEBA00"/>
</svg>
