<?xml version="1.0" encoding="iso-8859-1"?>
<!-- Generator: Adobe Illustrator 21.0.0, SVG Export Plug-In . SVG Version: 6.00 Build 0)  -->
<svg version="1.1" id="Layer_1" xmlns="http://www.w3.org/2000/svg" xmlns:xlink="http://www.w3.org/1999/xlink" x="0px" y="0px"
	 viewBox="0 0 24 24" enable-background="new 0 0 24 24" xml:space="preserve">
<g>
	<path fill="#303C42" d="M18.5,11c-3.0327148,0-5.5,2.4672852-5.5,5.5s2.4672852,5.5,5.5,5.5s5.5-2.4672852,5.5-5.5
		S21.5327148,11,18.5,11z M20.8535156,15.8535156C20.7558594,15.9511719,20.6279297,16,20.5,16
		s-0.2558594-0.0488281-0.3535156-0.1464844L19,14.7070313V19.5c0,0.2763672-0.2236328,0.5-0.5,0.5S18,19.7763672,18,19.5
		v-4.7929688l-1.1464844,1.1464844c-0.1953125,0.1953125-0.5117188,0.1953125-0.7070313,0s-0.1953125-0.5117188,0-0.7070313l2-2
		c0.1953125-0.1953125,0.5117188-0.1953125,0.7070313,0l2,2C21.0488281,15.3417969,21.0488281,15.6582031,20.8535156,15.8535156z"/>
	<circle fill="#303C42" cx="8" cy="6.0180664" r="2"/>
	<path fill="#303C42" d="M18.5,10c0.2783203,0,0.5737305,0.0239258,0.9291992,0.074707
		c0.1430664,0.0224609,0.2885742-0.0224609,0.3984375-0.1171875C19.9370117,9.8623047,20,9.7246094,20,9.5795898V4
		c0-1.1030273-0.8969727-2-2-2H2C0.8969727,2,0,2.8969727,0,4v11c0,1.1030273,0.8969727,2,2,2h9.5
		c0.2763672,0,0.5-0.2236328,0.5-0.5C12,12.9160156,14.9160156,10,18.5,10z M2,3h16c0.5512695,0,1,0.4487305,1,1v5.0200195
		C18.8261719,9.0063477,18.6616211,9,18.5,9c-0.9807739,0-1.9176025,0.1905518-2.7770386,0.5344849l-2.8694458-2.8699341
		c-0.09375-0.09375-0.2207031-0.1464844-0.3535156-0.1464844c-0.1459961-0.0292969-0.2612305,0.0537109-0.3554688,0.1484375
		l-3.3193359,3.3530273c-0.1933594,0.1953125-0.1928711,0.5107422,0.0019531,0.7050781l1.2148438,1.2148438
		c0.0942383,0.0947266,0.1464844,0.2202148,0.1464844,0.3535156c0,0.1337891-0.0517578,0.2587891-0.1464844,0.3535156
		c-0.1894531,0.1884766-0.5175781,0.1884766-0.7070313,0L6.3535156,9.6645508C6.2597656,9.5708008,6.1328125,9.5180664,6,9.5180664
		S5.7402344,9.5708008,5.6464844,9.6645508L1,14.3110352V4C1,3.4487305,1.4487305,3,2,3z"/>
</g>
<g>
</g>
<g>
</g>
<g>
</g>
<g>
</g>
<g>
</g>
<g>
</g>
<g>
</g>
<g>
</g>
<g>
</g>
<g>
</g>
<g>
</g>
<g>
</g>
<g>
</g>
<g>
</g>
<g>
</g>
</svg>
