<?xml version="1.0" encoding="UTF-8" standalone="no"?>
<!-- Created with Inkscape (http://www.inkscape.org/) -->

<svg
   width="35mm"
   height="35mm"
   viewBox="0 0 35 35"
   version="1.1"
   id="svg5"
   xml:space="preserve"
   inkscape:version="1.2 (dc2aedaf03, 2022-05-15)"
   sodipodi:docname="user.svg"
   xmlns:inkscape="http://www.inkscape.org/namespaces/inkscape"
   xmlns:sodipodi="http://sodipodi.sourceforge.net/DTD/sodipodi-0.dtd"
   xmlns="http://www.w3.org/2000/svg"
   xmlns:svg="http://www.w3.org/2000/svg"><sodipodi:namedview
     id="namedview7"
     pagecolor="#ffffff"
     bordercolor="#000000"
     borderopacity="0.25"
     inkscape:showpageshadow="2"
     inkscape:pageopacity="0.0"
     inkscape:pagecheckerboard="0"
     inkscape:deskcolor="#d1d1d1"
     inkscape:document-units="mm"
     showgrid="false"
     inkscape:zoom="1.3228492"
     inkscape:cx="84.665737"
     inkscape:cy="123.21888"
     inkscape:window-width="1366"
     inkscape:window-height="705"
     inkscape:window-x="-8"
     inkscape:window-y="-8"
     inkscape:window-maximized="1"
     inkscape:current-layer="layer1" /><defs
     id="defs2" /><g
     inkscape:label="Capa 1"
     inkscape:groupmode="layer"
     id="layer1"><path
       d="m 2.9547334,32.378883 c 0,-0.205107 0.048244,-0.78781 0.1072141,-1.29488 0.3684059,-3.167988 1.7232889,-6.06169 3.8999831,-8.329398 1.1798305,-1.229158 2.3581574,-2.124868 3.7488034,-2.849654 l 0.767182,-0.399844 0.864731,0.862303 c 1.279769,1.276185 2.563387,2.081097 3.923134,2.460065 1.982527,0.552542 4.242971,-0.317489 6.391572,-2.460065 l 0.86473,-0.862303 0.767182,0.399844 c 1.390647,0.724786 2.568975,1.620496 3.748805,2.849654 2.176694,2.267708 3.531575,5.16141 3.899986,8.329398 0.059,0.50707 0.107211,1.089773 0.107211,1.29488 v 0.372938 H 17.5 2.9547334 Z M 16.899666,20.470895 C 14.481142,20.108089 11.788688,17.946245 10.380958,15.236836 9.3745801,13.299902 9.1171265,11.468262 9.5521856,9.3405637 10.495834,4.7254956 14.528213,1.6372344 18.679161,2.3505159 c 3.348861,0.575455 6.02138,3.3353833 6.768654,6.9900478 0.433182,2.1185233 0.175555,3.9699743 -0.817077,5.8719523 -0.54685,1.047818 -1.091328,1.778486 -2.02216,2.713684 -1.842425,1.851071 -3.980294,2.804005 -5.708912,2.544695 z"
       style="fill:#241c1c;stroke-width:0.0709525"
       id="path359" /></g></svg>
