<?xml version="1.0" encoding="UTF-8" standalone="no"?>
<!-- Created with Inkscape (http://www.inkscape.org/) -->

<svg
   width="16.933332mm"
   height="16.933332mm"
   viewBox="0 0 16.933332 16.933332"
   version="1.1"
   id="svg4141"
   inkscape:version="1.2 (dc2aedaf03, 2022-05-15)"
   sodipodi:docname="user2.svg"
   xmlns:inkscape="http://www.inkscape.org/namespaces/inkscape"
   xmlns:sodipodi="http://sodipodi.sourceforge.net/DTD/sodipodi-0.dtd"
   xmlns="http://www.w3.org/2000/svg"
   xmlns:svg="http://www.w3.org/2000/svg">
  <sodipodi:namedview
     id="namedview4143"
     pagecolor="#ffffff"
     bordercolor="#000000"
     borderopacity="0.25"
     inkscape:showpageshadow="2"
     inkscape:pageopacity="0.0"
     inkscape:pagecheckerboard="0"
     inkscape:deskcolor="#d1d1d1"
     inkscape:document-units="mm"
     showgrid="false"
     inkscape:zoom="1.8707912"
     inkscape:cx="11.225197"
     inkscape:cy="72.696513"
     inkscape:window-width="1366"
     inkscape:window-height="705"
     inkscape:window-x="-8"
     inkscape:window-y="-8"
     inkscape:window-maximized="1"
     inkscape:current-layer="layer1" />
  <defs
     id="defs4138" />
  <g
     inkscape:label="Capa 1"
     inkscape:groupmode="layer"
     id="layer1">
    <g
       id="User"
       transform="matrix(0.26458333,0,0,0.26458333,-3.3838135e-7,0.00314987)">
      <path
         d="m 41.2452,33.0349 a 16,16 0 1 0 -18.49,0 A 26.0412,26.0412 0 0 0 4,58 2,2 0 0 0 6,60 H 58 A 2,2 0 0 0 60,58 26.0412,26.0412 0 0 0 41.2452,33.0349 Z M 20,20 A 12,12 0 1 1 32,32 12.0137,12.0137 0 0 1 20,20 Z M 8.09,56 A 22.0293,22.0293 0 0 1 30,36 h 4 a 22.0293,22.0293 0 0 1 21.91,20 z"
         id="path3996" />
    </g>
  </g>
</svg>
