<?xml version="1.0" encoding="UTF-8" standalone="no"?>
<svg
   viewBox="0 0 64 64"
   version="1.1"
   id="svg7"
   xmlns="http://www.w3.org/2000/svg"
   xmlns:svg="http://www.w3.org/2000/svg">
  <defs
     id="defs11" />
  <title
     id="title2" />
  <g
     id="g4348"
     transform="translate(-0.18285699,-1.8895237)">
    <path
       d="m 40.266536,35.369075 c -2.1879,-2.0719 -5.0867,-3.2267 -8.1,-3.2267 -3.0133,0 -5.9121,1.1548 -8.1,3.2267 l -9.77,9.240001 c -5.6000004,5.089999 -1.56,14.82 6,14.439999 4.1,-0.11 7.43,-2.21 11.86,-2.13 4.59,-0.08 8,1.77 12.12,2.13 7.43,0.170001 11.27,-9.449999 5.75,-14.439999 z"
       fill="#CCCCCC"
       id="path240"
       style="fill:#9adcff;fill-opacity:1" />
    <path
       d="m 57.086536,21.789175 c -3.82,-0.75 -6.74,3.5 -7.5,7.160001 -2.28,11.329999 8.7,13.489999 11.27,2.5 1.05,-4.710001 -0.61,-8.960001 -3.77,-9.660001 z"
       fill="#CCCCCC"
       id="path242"
       style="fill:#9adcff;fill-opacity:1" />
    <path
       d="m 40.896536,27.909176 c 3.8,0 6.89,-4.32 6.89,-9.620001 -0.38,-12.7600198 -13.4,-12.7600198 -13.77,0 0,5.300001 3.09,9.62 6.88,9.620001 z"
       fill="#CCCCCC"
       id="path244"
       style="fill:#9adcff;fill-opacity:1" />
    <path
       d="m 14.746436,28.949176 c -0.75,-3.660001 -3.68,-7.910001 -7.4999604,-7.160001 -7.080001,1.79 -4.08,16.88 2.8400004,16.92 3.91996,-0.13 5.72996,-4.68 4.65996,-9.759999 z"
       fill="#CCCCCC"
       id="path246"
       style="fill:#9adcff;fill-opacity:1" />
    <path
       d="m 23.436436,27.909176 c 3.79,0 6.88,-4.32 6.88,-9.620001 -0.37,-12.7600198 -13.39,-12.7600198 -13.77,0 0,5.300001 3.09,9.62 6.89,9.620001 z"
       fill="#CCCCCC"
       id="path248"
       style="fill:#9adcff;fill-opacity:1" />
  </g>
</svg>
