<?xml version="1.0" encoding="UTF-8" standalone="no"?>
<svg
   viewBox="0 0 64 64"
   version="1.1"
   id="svg332"
   sodipodi:docname="findpet.svg"
   inkscape:version="1.2 (dc2aedaf03, 2022-05-15)"
   xmlns:inkscape="http://www.inkscape.org/namespaces/inkscape"
   xmlns:sodipodi="http://sodipodi.sourceforge.net/DTD/sodipodi-0.dtd"
   xmlns="http://www.w3.org/2000/svg"
   xmlns:svg="http://www.w3.org/2000/svg">
  <defs
     id="defs336" />
  <sodipodi:namedview
     id="namedview334"
     pagecolor="#ffffff"
     bordercolor="#000000"
     borderopacity="0.25"
     inkscape:showpageshadow="2"
     inkscape:pageopacity="0.0"
     inkscape:pagecheckerboard="0"
     inkscape:deskcolor="#d1d1d1"
     showgrid="false"
     inkscape:zoom="5.8004854"
     inkscape:cx="10.688761"
     inkscape:cy="8.6199683"
     inkscape:window-width="1366"
     inkscape:window-height="705"
     inkscape:window-x="-8"
     inkscape:window-y="-8"
     inkscape:window-maximized="1"
     inkscape:current-layer="Layer_34"
     showguides="false" />
  <g
     id="Layer_34"
     data-name="Layer 34"
     style="fill:#00ff00"
     transform="translate(-0.4110795,-0.75587835)">
    <path
       id="path2"
       style="opacity:1;fill:#ed1c24;fill-opacity:1"
       d="M 32.385689 3.7558784 C 20.7757 3.7558784 11.385689 13.506359 11.385689 25.486347 C 11.385689 37.236335 30.875768 55.226348 31.715767 55.986347 C 31.899567 56.152147 32.138189 56.24416 32.385689 56.24416 C 32.633189 56.24416 32.871811 56.152147 33.055611 55.986347 C 33.89561 55.226348 53.43647 37.236335 53.43647 25.486347 C 53.43647 13.506359 43.995677 3.7558784 32.385689 3.7558784 z M 32.387642 7.203144 C 43.23604 7.203144 52.057564 15.672122 52.057564 26.078144 C 52.057564 36.284385 33.799492 51.912136 33.014595 52.572285 C 32.842852 52.7163 32.618906 52.794941 32.387642 52.794941 C 32.156377 52.794941 31.934386 52.716301 31.762642 52.572285 C 30.977746 51.912136 12.764595 36.284385 12.764595 26.078144 C 12.764595 15.672122 21.539244 7.203144 32.387642 7.203144 z " />
    <path
       d="m 35.84608,23.38573 c -0.9313,-0.8952 -2.1731,-1.3953 -3.4649,-1.3953 -1.2919,0 -2.5337,0.5001 -3.465,1.3953 l -3.66,3.46 c -0.5421,0.527 -0.9137,1.2044 -1.0668,1.9447 -0.1531,0.7404 -0.0807,1.5096 0.2078,2.2084 0.2886,0.6987 0.78,1.2949 1.4109,1.7115 0.6308,0.4166 1.3721,0.6344 2.128,0.6254 1.56,0 2.81,-0.81 4.44,-0.8 1.63,0.01 3.0001,0.7 4.5001,0.79 0.7517,0.0019 1.4869,-0.2211 2.111,-0.6403 0.6241,-0.4191 1.1086,-1.0153 1.3914,-1.7119 0.2827,-0.6966 0.3507,-1.4618 0.1952,-2.1973 -0.1554,-0.7356 -0.5272,-1.4078 -1.0677,-1.9305 z"
       fill="#e6e6e6"
       id="path4"
       style="stroke:#ed1c24;stroke-opacity:1;stroke-width:0.7;stroke-dasharray:none;fill:none;fill-opacity:1" />
    <path
       d="m 43.63608,19.87593 c -0.111,-0.4228 -0.3362,-0.8068 -0.651,-1.11 -0.3148,-0.3032 -0.707,-0.5139 -1.1336,-0.6089 -0.4266,-0.0951 -0.8712,-0.0708 -1.2849,0.0702 -0.4137,0.1409 -0.7806,0.393 -1.0605,0.7287 -0.6017,0.6662 -1.0195,1.4776 -1.2124,2.3543 -0.1929,0.8767 -0.1541,1.7885 0.1124,2.6457 1.19,3.14 4.78,1.73 5.33,-1.43 0.214,-0.8754 0.1794,-1.7932 -0.1,-2.65 z"
       fill="#e6e6e6"
       id="path6"
       style="stroke:#ed1c24;stroke-opacity:1;stroke-width:0.7;stroke-dasharray:none;fill:none;fill-opacity:1" />
    <path
       d="m 35.65608,21.66583 c 4.22,-0.07 4.22,-8.38 0,-8.46 -4.27,0.08 -4.27,8.39 0,8.46 z"
       fill="#e6e6e6"
       id="path8"
       style="stroke:#ed1c24;stroke-opacity:1;stroke-width:0.7;stroke-dasharray:none;fill:none;fill-opacity:1" />
    <path
       d="m 24.57598,25.66573 c 3.59,-1 2,-8.14 -1.67,-7.52 -3.68,0.97 -1.79,8.3 1.67,7.52 z"
       fill="#e6e6e6"
       id="path10"
       style="stroke:#ed1c24;stroke-opacity:1;stroke-width:0.7;stroke-dasharray:none;fill:none;fill-opacity:1" />
    <path
       d="m 29.10608,21.66583 c 4.23,-0.07 4.23,-8.38 0,-8.46 -4.23,0.08 -4.22,8.39 0,8.46 z"
       fill="#e6e6e6"
       id="path12"
       style="stroke:#ed1c24;stroke-opacity:1;stroke-width:0.7;stroke-dasharray:none;fill:none;fill-opacity:1" />
    <path
       d="m 44.29608,49.805927 c -0.1294,-0.0262 -0.2627,-0.0265 -0.3922,-8e-4 -0.1295,0.0256 -0.2527,0.0766 -0.3624,0.15 -0.1097,0.0734 -0.2038,0.1679 -0.2768,0.2779 -0.073,0.1099 -0.1235,0.2333 -0.1486,0.3629 -0.047,0.2584 0.0095,0.5248 0.1573,0.7419 0.1478,0.217 0.3751,0.3672 0.6327,0.4181 5.529999,1.1 7.529999,2.68 7.529999,3.48 0,1.84 -7.419999,4.51 -18.999999,4.51 -11.58,0 -19,-2.67 -19,-4.51 0,-0.8 2,-2.38 7.53,-3.48 0.2597,-0.0508 0.4886,-0.2025 0.6367,-0.4218 0.1481,-0.2193 0.2032,-0.4883 0.1533,-0.7482 -0.0251,-0.1296 -0.0756,-0.253 -0.1487,-0.3629 -0.073,-0.11 -0.167,-0.2045 -0.2767,-0.2779 -0.1097,-0.0734 -0.2329,-0.1244 -0.3624,-0.15 -0.1295,-0.0257 -0.2628,-0.0254 -0.3922,8e-4 -4.17,0.83 -9.14,2.44 -9.14,5.44 -0.05,4.28 10.49,6.52 20.95,6.52 10.46,0 20.999999,-2.24 20.999999,-6.51 0.05,-3 -4.919999,-4.61 -9.089999,-5.44 z"
       fill="#ed1c24"
       id="path14" />
  </g>
</svg>
