<?xml version="1.0" encoding="UTF-8" standalone="no"?>
<svg
   viewBox="0 0 64 64"
   version="1.1"
   id="svg7"
   sodipodi:docname="history.svg"
   inkscape:version="1.2 (dc2aedaf03, 2022-05-15)"
   xmlns:inkscape="http://www.inkscape.org/namespaces/inkscape"
   xmlns:sodipodi="http://sodipodi.sourceforge.net/DTD/sodipodi-0.dtd"
   xmlns="http://www.w3.org/2000/svg"
   xmlns:svg="http://www.w3.org/2000/svg">
  <defs
     id="defs11" />
  <sodipodi:namedview
     id="namedview9"
     pagecolor="#ffffff"
     bordercolor="#000000"
     borderopacity="0.25"
     inkscape:showpageshadow="2"
     inkscape:pageopacity="0.0"
     inkscape:pagecheckerboard="0"
     inkscape:deskcolor="#d1d1d1"
     showgrid="false"
     inkscape:zoom="4.1015625"
     inkscape:cx="3.1695238"
     inkscape:cy="36.327619"
     inkscape:window-width="1366"
     inkscape:window-height="705"
     inkscape:window-x="-8"
     inkscape:window-y="-8"
     inkscape:window-maximized="1"
     inkscape:current-layer="g481" />
  <title
     id="title2" />
  <g
     id="g481"
     transform="translate(-3.2526235,-1.401899)">
    <path
       d="m 46.285474,40.737725 c -0.410306,0.616329 -1.007411,1.041506 -1.666984,1.209965 0.06723,1.715425 0.109826,7.551296 -2.240912,10.051036 -0.08629,0.09173 -0.175307,0.176882 -0.26586,0.258238 l -0.08203,6.977397 c -0.0018,0.14092 -0.01927,0.277512 -0.04916,0.409221 h 1.554453 v -1.8e-5 h 1.554453 c -0.02988,-0.131691 -0.0475,-0.268283 -0.04916,-0.409203 L 44.914,48.49371 l 0.598446,-0.01779 0.126418,10.751474 c 0.0083,0.712891 0.582548,1.289719 1.295345,1.301302 0.0072,1.2e-4 0.0146,1.2e-4 0.02175,1.2e-4 0.703195,0 1.283995,-0.553671 1.315219,-1.258613 l 0.48163,-10.890818 0.0061,-1.94e-4 c 0.03871,-1.265822 0.11253,-2.369671 0.11253,-2.369671 0.237224,0.118606 -0.02636,-2.787482 -0.02636,-2.787482 0,0 -0.03953,-0.177911 0.514001,-0.35583 -0.633882,-0.792358 -1.443695,-3.094905 -1.91187,-4.537229 l -0.86907,1.705529 c -0.05789,0.259582 -0.158069,0.500901 -0.292747,0.703264 z"
       id="path2"
       style="fill:#9adcff;stroke:none;stroke-width:0.239426;fill-opacity:1" />
    <path
       d="m 38.200855,59.296537 -0.293848,-6.644492 c -0.269714,-0.180069 -0.532916,-0.404801 -0.789963,-0.674798 -0.414448,0.815533 -0.670802,1.941528 -0.670802,3.185306 0,1.378211 0.315563,2.610081 0.811441,3.436872 l -0.36151,0.08627 c -0.514505,0.122629 -0.832032,0.639245 -0.709278,1.153748 0.104869,0.439799 0.497552,0.735705 0.930698,0.735705 0.07353,0 0.14835,-0.0083 0.223051,-0.02641 l 1.176565,-0.280635 c -0.185125,-0.280134 -0.300409,-0.611547 -0.316354,-0.9715 z"
       id="path4"
       style="fill:#9adcff;stroke:none;stroke-width:0.239426;fill-opacity:1" />
    <path
       d="m 38.798846,59.270128 c 0.03122,0.704942 0.612023,1.258622 1.315218,1.258622 0.0071,0 0.01448,0 0.02175,-1.2e-4 0.712797,-0.01158 1.287037,-0.588392 1.295345,-1.301311 l 0.07671,-6.524347 c -0.557146,0.332303 -1.177428,0.502198 -1.855843,0.502198 -0.389403,0 -0.766068,-0.07469 -1.131266,-0.223555 z"
       id="path6"
       style="fill:#9adcff;stroke:none;stroke-width:0.239426;fill-opacity:1" />
    <path
       d="m 48.869149,59.296537 c -0.01595,0.359953 -0.131206,0.691348 -0.316354,0.971501 l 1.176542,0.280625 c 0.0747,0.01788 0.149403,0.02641 0.22305,0.02641 0.433146,0 0.825829,-0.296008 0.930698,-0.735715 0.02653,-0.111166 0.02885,-0.221729 0.01672,-0.329087 0.313624,0.04772 0.586762,0.08636 0.801408,0.114252 1.62755,0.211463 7.425741,-0.996344 7.425741,-0.996344 0,0 -3.480974,-1.408122 -6.841325,-2.227435 -0.527385,-0.128577 -1.101098,-0.271851 -1.702179,-0.410741 0.0254,-0.268589 0.0403,-0.544452 0.0403,-0.827505 0,-1.857706 -0.572086,-3.451902 -1.388626,-4.141814 z"
       id="path8"
       style="fill:#9adcff;stroke:none;stroke-width:0.239426;fill-opacity:1" />
    <path
       d="m 37.449989,32.429486 c -0.215387,0.339836 -0.441358,0.719118 -0.618677,1.0705 -0.192547,0.381571 0.0142,1.561588 0.01233,1.791167 -0.006,0.737966 0.93228,0.588132 1.800344,0.378846 0.154861,-0.03734 0.28609,-0.13939 0.360289,-0.280366 l 1.315169,-2.498322 0.42606,0.372833 -1.253973,2.38206 c -0.02032,0.03864 -0.04769,0.07191 -0.07216,0.10745 0.156082,0.701448 0.314031,1.210475 0.314031,1.210475 l 1.443623,2.832747 c 0.0343,0.202123 0.104007,0.390337 0.205524,0.54283 0.404726,0.607971 1.031138,0.971446 1.701771,0.971446 h 0.450697 0.450696 c 0.670634,0 1.297021,-0.363475 1.701772,-0.971446 0.101517,-0.152493 0.171214,-0.340707 0.205524,-0.54283 l 1.443622,-2.832747 c 0,0 0.157949,-0.509027 0.314031,-1.210493 -0.02447,-0.03558 -0.05182,-0.06885 -0.07214,-0.107432 l -1.253971,-2.38206 0.42606,-0.372833 1.315169,2.498322 c 0.07419,0.140948 0.205428,0.243042 0.360289,0.280366 0.868088,0.209258 1.806401,0.359092 1.800367,-0.378846 -0.0019,-0.229579 0.204854,-1.409623 0.01231,-1.791167 -0.177319,-0.351409 -0.40329,-0.730682 -0.618678,-1.0705 -0.37985,-0.599335 -0.889733,-0.669971 -1.565035,-0.679635 -0.06889,-9.27e-4 -0.138916,-0.0019 -0.211318,-0.0019 l -0.137168,-0.02808 -0.586737,-0.119932 c -1.231084,-0.753135 -3.58479,-0.832712 -3.58479,-0.832712 v 1.8e-5 c 0,0 -2.353683,0.0796 -3.58479,0.832703 l -0.586786,0.119932 -0.137096,0.02798 c -0.07241,2.13e-4 -0.142411,7.23e-4 -0.211317,0.0019 -0.675303,0.0096 -1.185185,0.08034 -1.565036,0.679636 z m 5.247751,7.588286 c 0,-0.483452 0.391916,-0.875364 0.875367,-0.875364 0.48345,0 0.875367,0.391912 0.875367,0.875364 0,0.483453 -1.750734,0.483453 -1.750734,0 z m 2.499396,-4.848247 c 0.311447,0 0.563946,0.252503 0.563946,0.563948 0,0.311444 -0.252499,0.563947 -0.563946,0.563947 -0.311446,0 -0.563921,-0.252503 -0.563921,-0.563947 0,-0.311445 0.252452,-0.563948 0.563921,-0.563948 z m -3.324269,2.8e-5 c 0.311446,0 0.563946,0.252475 0.563946,0.563947 0,0.311445 -0.2525,0.56392 -0.563946,0.56392 -0.311445,0 -0.563944,-0.252475 -0.563944,-0.56392 0,-0.311472 0.252499,-0.563947 0.563944,-0.563947 z"
       id="path10"
       style="fill:#9adcff;stroke:none;stroke-width:0.239426;fill-opacity:1" />
    <circle
       cx="22.265678"
       cy="10.962333"
       id="circle14"
       style="fill:#9adcff;stroke:none;stroke-width:0.239426;fill-opacity:1"
       r="5.1476698" />
    <path
       d="m 29.289664,18.948434 c -0.851089,-0.494998 -3.254931,-1.660782 -7.023576,-1.660782 -3.765581,0 -6.168968,1.164042 -7.021685,1.659606 -0.373626,0.147776 -0.690459,0.438873 -0.860212,0.837753 -0.123209,0.289706 -3.021586,7.210162 -3.29585,17.206676 -0.02361,0.859158 0.653754,1.574727 1.512793,1.598356 0.01472,2.41e-4 0.02899,4.82e-4 0.04348,4.82e-4 0.83986,0 1.531731,-0.668933 1.55486,-1.513608 0.17138,-6.245204 1.455258,-11.272343 2.301679,-13.953487 0.591311,1.725331 1.090754,3.657695 0.964721,5.00959 -0.218142,2.340946 -0.976406,3.356767 -1.3145,5.415734 -0.05143,0.158285 -0.08816,0.323945 -0.106161,0.496166 l -2.530116,24.30179 c -0.137024,1.315219 0.81836,2.492475 2.133553,2.629355 0.08418,0.0083 0.167886,0.01307 0.250657,0.01307 1.210922,0 2.250464,-0.915617 2.378605,-2.146533 L 20.24827,39.916336 c 0.814146,-1.399375 1.573103,-1.838721 2.017815,-1.838721 0.445428,0 1.20556,0.440615 2.020856,1.844086 l 1.969665,18.920896 c 0.128141,1.230916 1.167443,2.146533 2.378367,2.146533 0.08301,0 0.166713,-0.0046 0.250896,-0.01307 1.315217,-0.136899 2.270577,-1.314164 2.133552,-2.629355 L 28.489544,34.04492 c -0.01825,-0.176289 -0.05682,-0.34547 -0.110352,-0.507156 -0.339029,-2.051721 -1.094946,-3.067894 -1.312872,-5.404744 -0.126032,-1.351802 0.373411,-3.283805 0.964482,-5.008895 0.442054,1.400432 1.003173,3.441636 1.463016,5.960927 0.370704,2.030864 0.675207,4.372625 0.798368,6.942056 0.01659,0.346063 0.03033,0.695675 0.04005,1.04979 0.0022,0.08247 0.01269,0.162686 0.02722,0.241384 -0.153449,1.28642 -0.341711,4.001422 0.611447,5.124165 0.303496,0.357627 0.706356,0.546537 1.165097,0.546537 0.473467,0 0.877738,-0.194062 1.168617,-0.561168 0.131397,-0.165901 0.235213,-0.365226 0.316114,-0.588271 1.305857,5.552512 3.153702,10.766939 6.03125,10.766939 0.884059,0 1.654245,-0.342551 2.289516,-1.018045 2.152372,-2.288703 2.134392,-7.910702 2.079539,-9.561403 -0.01187,1.67e-4 -0.02351,0.0028 -0.03539,0.0028 h -0.901345 c -0.901465,0 -1.761222,-0.482822 -2.299692,-1.291702 -0.134797,-0.202484 -0.234973,-0.443775 -0.292843,-0.703431 l -0.869023,-1.705491 c -0.468174,1.44236 -1.277962,3.744851 -1.911867,4.53721 0.553554,0.177919 0.514,0.355829 0.514,0.355829 0,0 -0.263585,2.906089 -0.02636,2.787482 0,0 0.07379,1.103849 0.112531,2.369671 l 0.0061,1.95e-4 0.121294,2.742652 c -0.211439,-0.184693 -0.421487,-0.418422 -0.630124,-0.700345 -0.945973,-1.278322 -1.86257,-3.554479 -2.744043,-6.816212 -0.425341,-1.573912 -0.842613,-3.374567 -1.250931,-5.405745 -0.08698,-0.432906 -0.157351,-0.781869 -0.210912,-1.022354 -0.04022,-0.180236 -0.08359,-0.372499 -0.17095,-0.516273 -0.0086,-0.256978 -0.01825,-0.512539 -0.03019,-0.765273 -0.139795,-2.960565 -0.501712,-5.626465 -0.936798,-7.898165 -0.946669,-4.942771 -2.235717,-8.021359 -2.317002,-8.212501 -0.169299,-0.398213 -0.485175,-0.688846 -0.85789,-0.836502 z m 12.866301,29.545276 -0.0109,0.92782 c -0.171381,0.43033 -0.373935,0.820565 -0.612214,1.152747 l 0.02468,-2.098432 z m -9.601888,-6.660438 c -0.110136,0.13889 -0.235213,0.198147 -0.418063,0.198147 -0.178397,0 -0.312619,-0.06431 -0.434894,-0.208442 -0.477895,-0.562706 -0.557959,-2.033189 -0.479644,-3.383815 0.180385,0.08571 0.379229,0.13738 0.588918,0.147675 0.02559,9.27e-4 0.05085,0.0037 0.07673,0.0037 0.01427,0 0.02876,-2.4e-4 0.04349,-4.72e-4 0.09074,-0.0028 0.178899,-0.01436 0.264973,-0.0316 0.208229,-0.04179 0.400848,-0.1245 0.569524,-0.239975 0.19664,1.349987 0.25123,2.931682 -0.211031,3.514783 z"
       id="path16"
       style="fill:#9adcff;stroke:none;stroke-width:0.239426;fill-opacity:1" />
  </g>
</svg>
